<svg width="29" height="29" viewBox="0 0 29 29" fill="none" xmlns="http://www.w3.org/2000/svg">
<rect width="29" height="29" rx="14.5" fill="#1B85C6"/>
<path d="M8.67962 6.32038L9.29289 5.70711C9.68342 5.31658 10.3166 5.31658 10.7071 5.70711L13.2929 8.29289C13.6834 8.68342 13.6834 9.31658 13.2929 9.70711L11.5005 11.4995C11.2016 11.7984 11.1275 12.255 11.3165 12.6331C12.4093 14.8186 14.1814 16.5907 16.3669 17.6835C16.745 17.8725 17.2016 17.7984 17.5005 17.4995L19.2929 15.7071C19.6834 15.3166 20.3166 15.3166 20.7071 15.7071L23.2929 18.2929C23.6834 18.6834 23.6834 19.3166 23.2929 19.7071L22.6796 20.3204C20.5683 22.4317 17.2257 22.6693 14.837 20.8777L13.6286 19.9714C11.885 18.6638 10.3362 17.115 9.02857 15.3714L8.12226 14.163C6.33072 11.7743 6.56827 8.43173 8.67962 6.32038Z" fill="white"/>
</svg>
