<svg width="47" height="19" viewBox="0 0 47 19" fill="none" xmlns="http://www.w3.org/2000/svg">
<path d="M5.71249 10.9994C4.98912 11.0082 4.27094 10.8754 3.59838 10.6088C2.98594 10.3638 2.43017 9.99528 1.96643 9.5259C1.50949 9.0617 1.14988 8.51054 0.909378 7.90524C0.658735 7.25664 0.534105 6.56622 0.542513 5.87096V5.84274C0.538251 5.16211 0.666107 4.48712 0.918823 3.85533C1.4117 2.61329 2.38202 1.62085 3.61255 1.10022C4.2668 0.819624 4.97254 0.678637 5.6845 0.68693C6.08488 0.683475 6.4848 0.714114 6.87978 0.778618C7.21531 0.834598 7.54474 0.922024 7.8638 1.03928C8.16386 1.15021 8.45274 1.28923 8.72642 1.45476C9.00494 1.62557 9.27044 1.81724 9.52028 2.02803L8.40978 3.35036C8.22341 3.19152 8.02829 3.04339 7.8251 2.90667C7.62744 2.77535 7.41757 2.66339 7.19838 2.5724C6.96478 2.47829 6.72255 2.40757 6.47501 2.36103C6.19154 2.30597 5.90312 2.27948 5.61423 2.28167C5.17273 2.27845 4.73606 2.37601 4.33798 2.56675C3.95073 2.7522 3.60264 3.01045 3.31306 3.32755C3.01715 3.65548 2.78505 4.0356 2.6284 4.44877C2.46277 4.88129 2.37903 5.34099 2.38179 5.80415V5.83237C2.37684 6.3188 2.45804 6.802 2.62126 7.26021C2.92028 8.10463 3.55933 8.78526 4.38302 9.13669C4.82211 9.32306 5.29517 9.41544 5.77192 9.40772C6.22391 9.41118 6.67325 9.34161 7.10289 9.20154C7.48899 9.07818 7.85228 8.8925 8.17849 8.65222V6.78242H5.62829V5.26393H9.87263V9.44665C9.61404 9.66481 9.34048 9.86501 9.05424 10.0454C8.74578 10.2402 8.42061 10.4074 8.08277 10.5451C7.72166 10.6926 7.3472 10.8051 6.96478 10.8815C6.55196 10.9617 6.13211 11.0013 5.71145 10.9992L5.71249 10.9994Z" fill="white"/>
<path d="M16.9143 10.9993C16.1895 11.0092 15.4703 10.8713 14.8002 10.5945C14.186 10.3385 13.6287 9.96253 13.1611 9.48889C12.7031 9.01882 12.3403 8.46466 12.0925 7.85694C11.8349 7.22596 11.7045 6.55063 11.7087 5.8693V5.84108C11.7052 5.16045 11.8356 4.4857 12.0925 3.85541C12.3431 3.24389 12.7114 2.68789 13.1763 2.21839C14.1708 1.21985 15.5279 0.667424 16.9373 0.687351C17.6623 0.677791 18.3816 0.816013 19.0514 1.09407C19.6655 1.34886 20.2223 1.72402 20.6888 2.19789C21.1477 2.66646 21.5106 3.22027 21.7573 3.82811C22.0159 4.45863 22.1468 5.13431 22.1429 5.81574V5.84396C22.147 6.5254 22.016 7.20085 21.7573 7.83137C21.5083 8.44346 21.1404 9.00004 20.6747 9.46873C20.2018 9.94421 19.6417 10.3241 19.0254 10.5883C18.3564 10.8692 17.6368 11.0094 16.9113 10.9999L16.9143 10.9993ZM16.9425 9.37612C17.8583 9.38718 18.7367 9.01432 19.3648 8.34798C19.6649 8.02523 19.8992 7.64742 20.055 7.23517C20.2234 6.79781 20.3083 6.33258 20.3049 5.86378V5.83567C20.308 5.36514 20.2233 4.89841 20.055 4.45898C19.7441 3.61455 19.1047 2.93197 18.2824 2.56648C17.8526 2.37378 17.3857 2.27645 16.9145 2.2814C16.4464 2.27656 15.9825 2.37136 15.5538 2.55946C15.154 2.73788 14.7944 2.9952 14.4968 3.31622C14.1962 3.64231 13.9614 4.023 13.8048 4.43778C13.6382 4.87491 13.5545 5.33945 13.5581 5.80745V5.83567C13.5533 6.30125 13.6345 6.76372 13.7978 7.19981C13.9586 7.61724 14.198 7.99977 14.5025 8.32736C14.8049 8.65322 15.1709 8.91319 15.5781 9.09127C16.0068 9.28052 16.4703 9.37773 16.939 9.37635L16.9425 9.37612Z" fill="white"/>
<path d="M41.3843 10.9993C40.6594 11.0092 39.9403 10.8713 39.2702 10.5946C38.6567 10.3382 38.0999 9.96219 37.6326 9.48889C37.175 9.01882 36.8117 8.46466 36.5639 7.85694C36.3066 7.22596 36.1766 6.55063 36.1807 5.86931V5.84109C36.1773 5.16046 36.3073 4.4857 36.5639 3.85541C36.8145 3.24389 37.1826 2.68778 37.6471 2.21805C38.6422 1.21882 40.0007 0.666505 41.4108 0.687353C42.1358 0.677562 42.8552 0.8159 43.5249 1.09407C44.1394 1.34886 44.6968 1.72402 45.1641 2.19789C45.6225 2.66647 45.9847 3.22051 46.2308 3.82811C46.4896 4.45863 46.6203 5.13431 46.6162 5.81575V5.84397C46.6203 6.5254 46.4896 7.20085 46.2308 7.83137C45.9817 8.44266 45.6142 8.99866 45.1496 9.4677C44.1553 10.4693 42.7955 11.0227 41.3843 10.9993ZM41.4143 9.37612C42.3295 9.38683 43.2069 9.01375 43.835 8.34798C44.1347 8.02488 44.37 7.64708 44.5269 7.23517C44.6935 6.79736 44.7771 6.33224 44.7738 5.86378V5.83567C44.7768 5.36549 44.6933 4.89876 44.5269 4.45898C43.8835 2.7259 41.9573 1.84255 40.2238 2.48586C39.7463 2.66324 39.3155 2.94729 38.9641 3.31634C38.6643 3.64289 38.4294 4.02346 38.2721 4.4379C38.1056 4.87503 38.0216 5.33957 38.0254 5.80757V5.83579C38.0223 6.30171 38.1048 6.76418 38.27 7.19993C38.4317 7.6169 38.6706 7.99954 38.9747 8.32748C39.2768 8.65334 39.643 8.91331 40.0504 9.09138C40.4798 9.28098 40.9435 9.37797 41.4129 9.37647L41.4143 9.37612Z" fill="white"/>
<path d="M29.6155 5.45029V10.8354C29.5921 11.1451 29.3264 11.3795 29.0168 11.3639C28.7058 11.3811 28.4381 11.1464 28.4146 10.8354V5.45029C28.438 5.13964 28.7057 4.90455 29.0168 4.92182C29.3264 4.9065 29.5921 5.14079 29.6155 5.45029ZM26.7389 2.88166C26.4286 2.86531 26.1625 3.10028 26.1403 3.41013V8.31368C26.1801 8.64576 26.4822 8.88235 26.8143 8.84204C27.0909 8.80852 27.3092 8.59047 27.3426 8.31368V3.4137C27.3211 3.10109 27.0521 2.86381 26.7389 2.88166ZM24.5051 1.0933C24.1948 1.07682 23.9285 1.3118 23.9065 1.62177V10.8354C23.9464 11.1677 24.2486 11.4042 24.5805 11.3639C24.8572 11.3302 25.0754 11.112 25.1088 10.8354V1.62488C25.0873 1.31226 24.8183 1.07521 24.5051 1.0933ZM31.2898 2.88201C30.9795 2.86565 30.7131 3.10063 30.6911 3.41048V8.31368C30.7352 8.64519 31.0397 8.87832 31.371 8.83432C31.6422 8.79827 31.8555 8.58483 31.8919 8.31368V3.4137C31.8708 3.10247 31.6043 2.86565 31.2925 2.88189L31.2898 2.88201ZM33.5642 1.09364C33.2546 1.07821 32.9889 1.31261 32.9656 1.62223V10.8355C33.0055 11.1679 33.3075 11.4043 33.6396 11.364C33.9163 11.3303 34.1345 11.1121 34.1679 10.8355V1.62499C34.1464 1.31238 33.8774 1.07556 33.5642 1.09364Z" fill="white"/>
<path d="M8.8498 13.839H9.66796L10.9993 15.9076L12.3382 13.8373H13.1562V18.2155H12.3811V15.0794L10.9993 17.1408H10.9745L9.60679 15.0896V18.2153H8.84991L8.8498 13.839ZM18.4459 18.2911C18.1843 18.2945 17.9244 18.2536 17.6767 18.1696C17.4556 18.0911 17.255 17.9636 17.0904 17.7963C16.9226 17.6257 16.7945 17.4198 16.7148 17.1941C16.6226 16.9245 16.5779 16.6402 16.5828 16.3546V13.839H17.3527V16.3285C17.3278 16.6636 17.4328 16.996 17.6465 17.2561C17.8587 17.4733 18.1539 17.5885 18.4571 17.5731C18.7564 17.5893 19.0489 17.4785 19.2631 17.2685C19.4775 17.0149 19.5821 16.6863 19.5535 16.3549V13.8392H20.3227V16.3215C20.3283 16.6129 20.2832 16.903 20.1886 17.1789C20.1083 17.4088 19.9792 17.6194 19.8104 17.7949C19.6447 17.9614 19.4429 18.087 19.2205 18.1624C18.9712 18.2488 18.7097 18.2922 18.4459 18.2911ZM25.2924 18.2911C24.9611 18.2908 24.6325 18.2312 24.3224 18.115C24.0062 17.9952 23.7156 17.8155 23.4668 17.5864L23.9298 17.0372C24.1232 17.2085 24.3406 17.3504 24.5757 17.4577C24.8069 17.5588 25.057 17.6094 25.3095 17.6056C25.5098 17.6166 25.7088 17.5629 25.8766 17.4525C26.0091 17.364 26.088 17.214 26.0861 17.0547V17.0424C26.0873 16.9705 26.0734 16.8992 26.0455 16.8329C26.0115 16.7624 25.9599 16.7014 25.8958 16.6568C25.8032 16.592 25.7017 16.5411 25.5951 16.5054C25.4323 16.4493 25.2668 16.4035 25.0983 16.3678C24.8897 16.3179 24.6847 16.2543 24.4841 16.1776C24.32 16.1187 24.1661 16.0344 24.0282 15.9278C23.907 15.8345 23.8107 15.7138 23.7462 15.5754C23.6781 15.4134 23.6451 15.2388 23.6494 15.0631V15.0507C23.6478 14.8724 23.6863 14.6963 23.7619 14.5348C23.8349 14.3807 23.9409 14.2445 24.0719 14.1354C24.2119 14.0204 24.3717 13.932 24.5437 13.8752C24.7371 13.8115 24.9394 13.7803 25.1424 13.7816C25.4373 13.7775 25.7303 13.8254 26.0087 13.9227C26.2696 14.0191 26.5136 14.1567 26.7307 14.3308L26.3188 14.9138C26.1354 14.7775 25.9356 14.6651 25.7235 14.5794C25.535 14.5034 25.3336 14.4638 25.1304 14.4631C24.9421 14.4507 24.7553 14.5037 24.6018 14.6132C24.4835 14.6991 24.4136 14.8364 24.4133 14.9827V14.995C24.4114 15.0714 24.4266 15.147 24.4573 15.217C24.4928 15.2903 24.5492 15.3518 24.6193 15.3931C24.7184 15.4554 24.8251 15.5049 24.9366 15.5411C25.0704 15.5867 25.2428 15.6344 25.4558 15.6852C25.6627 15.7358 25.8658 15.8008 26.0631 15.8794C26.2232 15.9406 26.3718 16.028 26.5035 16.1381C26.617 16.2337 26.7079 16.3542 26.7692 16.4904C26.8322 16.6405 26.8642 16.8023 26.8625 16.965V16.977C26.8656 17.1668 26.8257 17.3543 26.7461 17.5265C26.6709 17.6872 26.56 17.8282 26.4223 17.9402C26.2764 18.0569 26.1085 18.1435 25.9289 18.1951C25.7232 18.2551 25.509 18.2832 25.2948 18.2797L25.2924 18.2911ZM30.1812 13.8517H30.9496V18.2155H30.1808L30.1812 13.8517ZM36.5186 18.3036C36.2158 18.305 35.9164 18.2451 35.6378 18.1275C35.1037 17.901 34.683 17.4706 34.4686 16.9321C34.3523 16.6526 34.2925 16.3534 34.2925 16.0512V16.0368C34.2908 15.7354 34.3469 15.4364 34.458 15.156C34.6746 14.613 35.0994 14.1788 35.638 13.9503C35.9263 13.8298 36.2366 13.77 36.5498 13.7742C36.7335 13.7724 36.9166 13.7889 37.0972 13.8237C37.2531 13.8541 37.4051 13.9009 37.5513 13.9627C37.6852 14.0212 37.8125 14.0932 37.9315 14.1778C38.0479 14.26 38.1587 14.3509 38.2626 14.4486L37.7692 15.0191C37.6027 14.8629 37.4155 14.7301 37.2128 14.6248C37.0046 14.5222 36.7751 14.4706 36.5433 14.4751C36.1493 14.4709 35.7723 14.6364 35.5079 14.9292C35.3786 15.0726 35.2771 15.2392 35.2092 15.4203C35.1343 15.6123 35.0967 15.8166 35.0981 16.0225V16.0348C35.096 16.2413 35.1318 16.4456 35.2037 16.639C35.2697 16.8214 35.3717 16.989 35.5031 17.132C35.6317 17.2721 35.7877 17.3853 35.9608 17.4648C36.1432 17.5467 36.3407 17.5883 36.5402 17.5863C36.778 17.5929 37.0136 17.5415 37.2271 17.4366C37.4345 17.3251 37.6262 17.1869 37.7976 17.0248L38.2906 17.5247C38.1818 17.641 38.0641 17.7491 37.9382 17.8469C37.8146 17.9407 37.6818 18.0223 37.5422 18.0897C37.3935 18.1605 37.2374 18.2132 37.0756 18.2462C36.8932 18.2789 36.7081 18.2933 36.5229 18.2885L36.5186 18.3036ZM6.14214 15.7191H0.542291V16.3055H6.14214V15.7191ZM46.6092 15.7191H41.0096V16.3055H46.6092V15.7191Z" fill="white"/>
</svg>
