<?xml version="1.0" encoding="UTF-8"?>
<!-- Generator: Adobe Illustrator 24.1.1, SVG Export Plug-In . SVG Version: 6.00 Build 0)  -->
<svg xmlns="http://www.w3.org/2000/svg" xmlns:xlink="http://www.w3.org/1999/xlink" version="1.1" id="Layer_1" x="0px" y="0px" viewBox="0 0 16 16" style="enable-background:new 0 0 16 16;" xml:space="preserve">
<style type="text/css">
	.st0{fill:url(#SVGID_1_);}
	.st1{fill:url(#SVGID_2_);}
	.st2{fill:url(#SVGID_3_);}
	.st3{fill:url(#SVGID_4_);}
</style>
<linearGradient id="SVGID_1_" gradientUnits="userSpaceOnUse" x1="11.2942" y1="14.2923" x2="3.7264" y2="3.2998" gradientTransform="matrix(1 0 0 -1 0 18)">
	<stop offset="0.3834" style="stop-color:#2BBCEE"></stop>
	<stop offset="0.4178" style="stop-color:#29B7EB"></stop>
	<stop offset="0.8104" style="stop-color:#2081C4"></stop>
	<stop offset="1" style="stop-color:#246BB2"></stop>
</linearGradient>
<path class="st0" d="M12.9,1.5c-0.1,0-0.3,0.1-0.4,0.1c-1.6,0.6-2.9,1.8-4,3.1C8.3,5,8,5.3,7.7,5.7c-1.4,1.8-2.5,3.8-3.6,5.9  c-0.5,1-1,2.1-1.8,2.9c-0.2,0.2-0.5,0.3-0.8,0.3C1.7,14.8,1.9,15,2.1,15h3c0.4-0.1,0.7-0.3,0.9-0.5c0.7-0.8,1.2-1.8,1.6-2.8  c0.2-0.5,0.4-0.9,0.6-1.4l0-0.1c0,0,0.1-0.1,0.1-0.2c0.2-0.3,0.3-0.7,0.5-1C9,8.7,9.1,8.5,9.2,8.3c0.1-0.2,0.3-0.5,0.4-0.7  c0.7-1.5,1.7-2.8,2.9-4c0.4-0.4,0.8-0.7,1.1-1.2c0.1-0.2,0.2-0.4,0.1-0.6c-0.1-0.2-0.3-0.3-0.5-0.3C13.1,1.5,13,1.5,12.9,1.5z"></path>
<linearGradient id="SVGID_2_" gradientUnits="userSpaceOnUse" x1="2.833" y1="15.6452" x2="2.8574" y2="4.0133" gradientTransform="matrix(1 0 0 -1 0 18)">
	<stop offset="0" style="stop-color:#2BBCEE"></stop>
	<stop offset="0.9222" style="stop-color:#154477"></stop>
</linearGradient>
<path class="st1" d="M4.3,9.4C4.2,7.6,4.1,5.9,3.8,4.2c0-0.1,0-0.3,0-0.4c0-0.7,0-1.4,0.3-2c0.1-0.3,0.3-0.4,0.6-0.5  C3.6,1.1,2.3,1.2,1.5,2C1.2,2.3,1.2,2.9,1.1,3.3C1,5.7,1,8.1,1,10.6c0,1.3-0.1,2.8,0.4,4c0,0,0,0.1,0.1,0.1c0,0,0.1,0,0.2,0  c0.6,0,1-0.6,1.3-1c0.3-0.5,0.6-1,0.9-1.6C3.9,12,3.9,12,4,11.9c0.1-0.2,0.2-0.4,0.3-0.6c0.2-0.3,0.2-0.6,0.1-1  C4.4,10,4.4,9.7,4.3,9.4z"></path>
<g>
	
		<linearGradient id="SVGID_3_" gradientUnits="userSpaceOnUse" x1="8.5949" y1="9.8175" x2="4.9828" y2="14.2796" gradientTransform="matrix(1 0 0 -1 0 18)">
		<stop offset="0.232" style="stop-color:#246BB2"></stop>
		<stop offset="0.5878" style="stop-color:#19507F"></stop>
		<stop offset="0.7746" style="stop-color:#14446A"></stop>
	</linearGradient>
	<path class="st2" d="M4.7,1.3C4.5,1.4,4.2,1.6,4.1,1.8c-0.3,0.6-0.3,1.3-0.3,2C4,4.2,4.2,4.6,4.4,5C5,6,5.6,6.9,6.3,7.8   c0,0,0-0.1,0.1-0.1c0.4-0.7,0.9-1.4,1.4-2C7.4,5,7.1,4.4,6.7,3.7C6.2,2.9,5.7,1.8,4.7,1.3z"></path>
	
		<linearGradient id="SVGID_4_" gradientUnits="userSpaceOnUse" x1="18.0887" y1="1.1747" x2="5.8835" y2="10.789" gradientTransform="matrix(1 0 0 -1 0 18)">
		<stop offset="0.3834" style="stop-color:#19B3E8"></stop>
		<stop offset="0.5684" style="stop-color:#178ABA"></stop>
		<stop offset="0.8078" style="stop-color:#175883"></stop>
		<stop offset="0.9237" style="stop-color:#15446D"></stop>
	</linearGradient>
	<path class="st3" d="M13.7,13.4c-0.6-0.5-1.2-1-1.7-1.5c-0.5-0.5-1-1.1-1.5-1.7c-0.2-0.3-0.4-0.6-0.6-0.9C9.7,9.1,9.6,9,9.5,8.8   c0-0.1-0.3-0.4-0.3-0.5C9.1,8.5,9,8.8,8.9,9c-0.2,0.3-0.3,0.7-0.5,1c0,0-0.1,0.1-0.1,0.2c0,0,0,0.1,0,0.1c0,0.1,0.1,0.2,0.2,0.3   c0.1,0.1,0.1,0.1,0.2,0.2C8.8,10.9,9,11,9.1,11.1c0.3,0.3,0.6,0.5,0.9,0.8c0.6,0.5,1.2,1,1.9,1.4c0.6,0.4,1.2,0.7,1.9,0.9   s1.4,0.4,2.1,0.3C15.1,14.3,14.4,13.9,13.7,13.4z"></path>
</g>
</svg>
