<svg width="69" height="13" viewBox="0 0 69 13" fill="none" xmlns="http://www.w3.org/2000/svg">
<path d="M55.861 11.8863C55.861 12.1051 55.844 12.3239 55.8308 12.5446C55.8289 12.5691 55.7988 12.5937 55.778 12.6182C55.7591 12.6427 55.7365 12.6653 55.695 12.7087C55.0386 12.7351 54.3596 12.7936 53.6239 12.6691C53.6239 11.7864 53.639 10.9734 53.6202 10.1623C53.6032 9.34746 53.705 8.52506 53.5277 7.61212C52.2677 9.23806 51.2209 10.8829 49.9665 12.4635C48.7122 10.8829 47.6653 9.23806 46.4053 7.61212C46.228 8.52506 46.3299 9.34746 46.3129 10.1623C46.294 10.9734 46.3091 11.7864 46.3091 12.6691C45.5735 12.7936 44.8944 12.7351 44.238 12.7087C44.1965 12.6653 44.1739 12.6427 44.155 12.6182C44.1343 12.5937 44.1041 12.5691 44.1022 12.5446C44.089 12.3239 44.072 12.1051 44.072 11.8863C44.0739 8.21006 44.0777 4.53379 44.0852 0.855639C44.0852 0.810369 44.1381 0.763214 44.2135 0.638722C46.1469 3.3813 48.0558 6.09371 49.9665 8.80799C51.8773 6.09371 53.7861 3.3813 55.7195 0.638722C55.795 0.763214 55.8478 0.810369 55.8478 0.855639C55.8553 4.53379 55.8591 8.21006 55.861 11.8863Z" fill="white"/>
<path d="M16.5953 0.687759C19.6038 0.501022 22.7237 3.19268 22.7067 6.76709C22.6916 10.2981 19.734 12.7691 16.7122 12.7936C12.9926 12.8238 10.6424 9.63793 10.6216 6.79349C10.599 3.5737 13.4038 0.550064 16.5953 0.687759ZM20.2885 6.78784C20.2885 6.59921 20.3074 6.4087 20.2848 6.22196C20.0584 4.28292 18.5457 2.86824 16.6085 2.85881C15.0675 2.84938 13.7075 3.93019 13.2133 5.40523C12.6833 6.98778 13.1699 8.78724 14.4129 9.74733C15.5843 10.6508 16.8933 10.8527 18.2175 10.2132C19.6095 9.53985 20.2697 8.33266 20.2867 6.78784H20.2885Z" fill="white"/>
<path d="M4.61961 6.10686C6.23045 8.27037 7.79791 10.3754 9.42196 12.5578C8.48639 12.6898 7.67342 12.6106 6.86423 12.6276C6.48509 12.6351 6.33231 12.3277 6.15312 12.0806C5.3609 10.9865 4.58 9.88498 3.79344 8.78719C3.5388 8.4307 3.27661 8.07797 3.00499 7.7045C2.47308 7.84785 2.33538 8.20623 2.34293 8.69288C2.35802 9.66618 2.35424 10.6414 2.34293 11.6147C2.33915 11.9202 2.4146 12.239 2.2373 12.5804C1.54316 12.6577 0.839599 12.6842 0.0926514 12.5502V0.927263C0.811306 0.76882 1.47715 0.80843 2.23541 0.893311C2.31652 2.40796 2.24484 3.87544 2.28634 5.42216C2.65416 5.23919 2.80128 4.92042 3.0314 4.69784C3.25775 4.48093 3.45769 4.2376 3.66518 4.00182C4.45362 3.10586 5.25527 2.22122 6.01919 1.30451C6.37569 0.878221 6.77935 0.712233 7.32635 0.744299C7.9771 0.782023 8.63351 0.75373 9.49552 0.75373C7.80168 2.61355 6.24554 4.32248 4.61961 6.10686Z" fill="white"/>
<path d="M24.0459 11.5374C24.41 10.9055 24.7212 10.3679 25.0815 9.74354C25.6586 10.1208 26.2434 10.3924 26.8658 10.5867C27.4242 10.7621 27.9844 10.7923 28.5408 10.6829C29.0822 10.5754 29.5518 10.3075 29.7046 9.71525C29.8423 9.18522 29.6046 8.65707 29.0067 8.2968C28.5257 8.00632 28.0051 7.77432 27.4864 7.55363C27.0224 7.35746 26.5622 7.1594 26.1396 6.8859C25.0286 6.16913 24.5495 5.12416 24.674 3.83209C24.8023 2.50418 25.4813 1.529 26.7564 1.05556C28.6728 0.342561 30.4459 0.75376 32.1775 1.80062C32.0341 2.44382 31.6946 2.95877 31.3871 3.53407C30.8401 3.33413 30.3158 3.15305 29.7989 2.95122C29.316 2.76448 28.8162 2.75505 28.3126 2.79278C27.7769 2.83239 27.3298 3.03799 27.1243 3.56991C26.93 4.06976 27.1129 4.54886 27.6279 4.97138C28.0711 5.33353 28.6012 5.54102 29.118 5.76925C29.5198 5.94844 29.931 6.10123 30.3233 6.29551C31.7323 6.99342 32.2416 8.26285 32.1397 9.63037C32.0341 11.0507 31.0269 12.2164 29.616 12.5842C27.6448 13.0973 25.8378 12.6559 24.0497 11.5336L24.0459 11.5374Z" fill="white"/>
<path d="M33.5129 11.4827C33.7732 10.8998 34.092 10.3377 34.4881 9.80015C35.0559 10.068 35.5633 10.3736 36.1291 10.5641C36.6837 10.7489 37.2382 10.7697 37.8003 10.7074C38.0418 10.681 38.2926 10.5905 38.5058 10.4679C39.2527 10.0397 39.3584 9.16071 38.7378 8.56466C38.3473 8.19119 37.8588 7.96673 37.3684 7.75358C36.8516 7.52912 36.3253 7.31786 35.8273 7.05568C34.4768 6.3408 33.8864 5.15058 34.0863 3.61142C34.2504 2.34576 35.2181 1.25928 36.5347 0.914104C38.3398 0.44066 39.9978 0.810362 41.6313 1.84779C41.337 2.43441 41.0635 2.98142 40.7843 3.53597C40.1789 3.31716 39.6243 3.11722 39.0698 2.91728C38.551 2.73055 38.0135 2.73809 37.4891 2.83052C37.0439 2.90974 36.6441 3.12477 36.5233 3.61519C36.3913 4.14711 36.5252 4.60169 36.9836 4.94876C37.4646 5.3128 38.0116 5.54669 38.5567 5.78813C38.9 5.93903 39.2622 6.05597 39.596 6.22762C41.1861 7.04247 41.5935 8.21005 41.5256 9.59455C41.4502 11.1337 40.4014 12.1957 38.8736 12.637C37.3684 13.0728 34.5485 12.5559 33.5148 11.4864L33.5129 11.4827Z" fill="white"/>
<path d="M63.1984 0.193542C65.0243 4.42248 66.771 8.46656 68.5421 12.571C67.6367 12.6691 66.8011 12.6521 65.9599 12.5917C65.5279 11.8976 65.3752 11.1111 64.9866 10.3849H61.0368C60.7218 11.1224 60.4181 11.8391 60.1126 12.5559C59.36 12.7049 58.6507 12.605 57.8321 12.6238C59.624 8.4741 61.3688 4.42813 63.1984 0.193542ZM63.1871 5.68437C62.6948 6.13329 62.1176 7.45931 62.0233 8.35527C62.7307 8.47033 63.4342 8.45901 64.2321 8.35527C63.8699 7.42913 63.5304 6.56335 63.1871 5.68437Z" fill="white"/>
</svg>
