<svg width="58" height="13" viewBox="0 0 58 13" fill="none" xmlns="http://www.w3.org/2000/svg">
<path d="M13.5365 2.95856C13.417 3.16989 13.1726 3.18643 12.9907 3.23788C12.105 3.48413 11.6069 4.13834 11.2872 4.90648C10.5025 6.79009 9.77479 8.69575 9.03421 10.5959C8.84126 11.0921 8.56745 11.5019 8.11906 11.8124C7.46852 12.2645 6.83453 12.1506 6.23361 11.7757C5.50038 11.3181 5.30192 10.7135 5.50038 9.89758C5.75398 8.85379 6.26485 7.90923 6.65076 6.91689C7.12488 5.70035 7.53284 4.44706 8.18521 3.31139C8.66301 2.48076 9.28965 1.79715 10.2949 1.54355C11.5959 1.21645 12.8492 1.73467 13.5365 2.95856Z" fill="white"/>
<path d="M19.6008 10.4691C19.0495 10.4985 18.5993 10.5445 18.0939 10.4471C18.432 8.53774 18.7628 6.66699 19.1028 4.75031C19.632 4.78706 20.1723 4.44709 20.5325 5.11968C21.0029 4.88813 21.4679 4.61432 22.0412 4.59411C22.6605 4.57205 23.0777 4.87894 23.4691 5.31447C23.9946 4.95429 24.5018 4.62351 25.1487 4.59962C26.2439 4.55919 26.821 5.08109 26.8228 6.17266C26.8247 7.06577 26.5894 7.92763 26.4038 8.7895C26.2881 9.32609 26.3432 9.89577 26.0822 10.4324C25.6191 10.5647 25.1358 10.4948 24.568 10.4728C24.6268 10.0998 24.6801 9.75427 24.7389 9.41063C24.8896 8.50833 25.0531 7.60788 25.191 6.70375C25.2314 6.43728 25.2516 6.14142 24.9429 5.97787C24.647 5.81983 24.3934 5.99441 24.1747 6.13223C23.809 6.36194 23.5463 6.66148 23.4709 7.14479C23.3037 8.22533 23.0721 9.29485 22.8608 10.403C22.3849 10.5886 21.9089 10.4948 21.3576 10.482C21.4991 9.6385 21.6296 8.84463 21.7674 8.05075C21.8409 7.62993 21.9273 7.21278 22.0081 6.79379C22.0688 6.47036 22.0247 6.18185 21.7233 5.98706C21.4348 5.79961 21.1867 5.97603 20.9515 6.09915C20.4222 6.38032 20.1999 6.85811 20.1117 7.43697C19.9628 8.42748 19.779 9.4143 19.599 10.4746L19.6008 10.4691Z" fill="white"/>
<path d="M8.39286 0.826876C8.37816 0.854441 8.37081 0.891194 8.34876 0.905895C7.21492 1.60053 6.66546 2.69762 6.21523 3.89026C5.70987 5.22808 5.14571 6.54385 4.59257 7.86146C4.47864 8.1316 4.44005 8.46789 4.1111 8.60571C2.08416 7.52517 1.35461 4.3313 3.07099 2.08568C4.30957 0.466693 7.08261 -0.246321 8.39286 0.826876Z" fill="white"/>
<path d="M16.021 6.43543C16.0504 6.69086 15.9365 6.94262 15.8372 7.19622C15.4054 8.28779 14.9846 9.38488 14.538 10.4691C14.2569 11.1527 13.3803 11.6673 12.6985 11.5882C11.9763 11.5055 11.2909 10.8495 11.1181 10.1475C11.0446 9.84797 11.1291 9.5907 11.221 9.34996C11.6713 8.15916 12.1252 6.96835 12.6324 5.79959C13.044 4.84952 14.1117 4.45994 15.0765 4.83666C15.4348 4.97632 16.0192 5.94477 16.0229 6.43359L16.021 6.43543Z" fill="white"/>
<path d="M47.2944 2.34664C47.8273 2.17573 48.307 2.19411 48.8454 2.2327C48.5661 3.85536 48.2959 5.43391 48.0056 7.11354C48.6212 6.44463 49.1982 5.87679 49.6999 5.24831C50.0233 4.84402 50.3725 4.65842 50.8742 4.7209C51.17 4.75765 51.4824 4.6529 51.8334 4.84402C50.9642 5.73897 50.1207 6.60634 49.2681 7.48475C49.8782 8.47341 50.4552 9.40511 51.0708 10.403C50.4699 10.5775 49.9186 10.4967 49.3434 10.4728C48.8638 9.6826 48.3952 8.9071 47.8825 8.06361C47.6105 8.90343 47.638 9.70832 47.3514 10.4618H45.907C46.2984 7.73099 46.8607 5.08843 47.2926 2.34847L47.2944 2.34664Z" fill="white"/>
<path d="M57.2913 4.82749C56.9807 6.63391 56.6812 8.37418 56.378 10.131C55.6245 10.5077 54.8435 10.7154 53.9982 10.6492C52.5207 10.5334 51.5872 9.53375 51.7838 7.91293C52.0282 5.89517 53.4745 4.64923 55.5014 4.60697C55.8983 4.59962 56.2953 4.61615 56.6904 4.64923C56.8668 4.66393 57.0377 4.74847 57.2913 4.82749ZM55.5124 5.95581C54.1948 5.95581 53.3164 6.83422 53.3183 8.06178C53.3183 8.7656 53.6123 9.13865 54.2867 9.29853C54.7737 9.41246 54.9887 9.31323 55.0769 8.81706C55.2423 7.89087 55.4573 6.96837 55.5124 5.95581Z" fill="white"/>
<path d="M31.8948 4.80359C32.3836 4.64923 32.8559 4.71906 33.4035 4.77602C33.1389 6.67801 32.6372 8.49362 32.4736 10.4232C31.9481 10.4434 31.4225 10.7172 30.9337 10.1732C30.715 10.2743 30.454 10.4158 30.1765 10.5187C28.8663 11.002 27.8905 10.3221 27.9346 8.94385C27.964 7.99378 28.2691 7.08781 28.4197 6.15611C28.4951 5.68567 28.4381 5.16928 28.7891 4.74662H30.103C30.1931 6.22962 29.4231 7.60052 29.583 9.0486C30.5422 9.3757 31.0678 9.11291 31.2442 8.23083C31.4721 7.10067 31.6761 5.96499 31.8966 4.80543L31.8948 4.80359Z" fill="white"/>
<path d="M38.7768 10.4654H37.3875C37.2369 10.1953 37.3416 9.96192 37.382 9.73405C37.5327 8.89607 37.7018 8.05994 37.8433 7.22012C37.8892 6.95182 37.9021 6.66882 37.8782 6.39869C37.8396 5.98889 37.5566 5.81063 37.1652 5.94478C36.4908 6.17265 36.1508 6.6578 36.0424 7.36162C35.8862 8.38153 35.6822 9.39408 35.4948 10.4305C34.9912 10.5573 34.5226 10.4912 33.9621 10.482C34.3058 8.54324 34.6329 6.69639 34.9692 4.78705C35.4837 4.76316 36.0185 4.48935 36.454 5.10497C36.9042 4.80359 37.3894 4.58859 37.9572 4.59777C38.8705 4.61431 39.3686 5.04249 39.4825 5.95581C39.5505 6.51078 39.4292 7.05106 39.33 7.58949C39.1535 8.53957 38.9643 9.48964 38.7768 10.4654Z" fill="white"/>
<path d="M44.6592 10.153C43.9333 10.697 43.1964 10.7117 42.465 10.6326C41.4396 10.5205 40.7817 9.8645 40.5575 8.81703C40.2433 7.3469 40.903 5.80878 42.1508 5.0149C42.8142 4.59224 43.5309 4.52425 44.2641 4.64737C44.9642 4.76498 45.3759 5.22624 45.5119 5.93374C45.6387 6.5953 45.3612 7.28442 44.7676 7.67952C44.163 8.08197 43.4629 8.1665 42.7664 8.24919C42.5293 8.27676 42.2868 8.25287 42.0258 8.25287C42.2445 9.05042 42.3805 9.17538 43.0457 9.22867C43.6264 9.27461 44.1888 9.16435 44.7437 8.92729C44.922 9.4106 44.5765 9.75976 44.6592 10.1549V10.153ZM42.0828 7.11903C42.7903 7.06023 43.3636 7.0786 43.858 6.7368C44.0748 6.58795 44.1777 6.36926 44.0785 6.10464C43.9866 5.86207 43.7606 5.84369 43.5492 5.85288C42.816 5.88412 42.443 6.36375 42.0828 7.11903Z" fill="white"/>
<path d="M1.86364 8.98797C2.84128 8.9751 3.64801 9.79838 3.65169 10.7852C3.65536 11.6673 2.56195 12.5402 1.8324 12.5108C0.965022 12.4759 0.150936 11.704 0.152774 10.7981C0.154612 9.86637 0.634243 8.99899 1.86364 8.98797Z" fill="white"/>
</svg>
