<?xml version="1.0" encoding="utf-8"?>
<!-- Generator: Adobe Illustrator 24.1.1, SVG Export Plug-In . SVG Version: 6.00 Build 0)  -->
<svg version="1.1" id="Layer_1" xmlns="http://www.w3.org/2000/svg" xmlns:xlink="http://www.w3.org/1999/xlink" x="0px" y="0px"
	 viewBox="0 0 385.7 67.7" style="enable-background:new 0 0 385.7 67.7;" xml:space="preserve">
<style type="text/css">
	.st0{fill:#FDCD0B;}
</style>
<g>
	<path class="st0" d="M33.6,3.8c1.3-2.2,4.7-1.4,5.4,0.8c2.9,5.6,5.7,11.4,8.5,17.1c7.2,1.6,14.7,1.8,21.9,3.7
		c0,1.6,0.9,3.4-0.5,4.6c-4.5,4.8-9.4,9.2-14,13.9c0.9,6.7,2.6,13.3,3.2,20.1c0.3,1.9-1.9,2.5-3.1,3.5c-5.5-2.7-10.8-5.7-16.3-8.5
		c-1.2-0.5-2.4-1.5-3.7-0.8C28.8,61.2,23,65,16.7,67.7c-1-1-2.8-1.8-2.6-3.5c0.6-6.8,2.1-13.4,3.2-20.1c-4.6-4.5-9.4-9-13.9-13.6
		c-2-1.5-1.4-5.1,1.2-5.5c6.5-1.6,13.4-1.5,19.9-3.2C27.9,15.9,30.1,9.5,33.6,3.8z"/>
	<path class="st0" d="M109.6,3.8c1.2-1.9,4.1-1.7,5.1,0.3c3.2,5.7,5.6,11.8,8.9,17.4c6.5,2.2,13.6,1.8,20.3,3.6
		c2.5,0.7,2.4,4.2,0.7,5.6c-4.4,4.6-9.2,8.8-13.7,13.4c1.1,6.7,2.6,13.3,3.3,20.1c0.4,1.9-1.9,2.5-3,3.5c-6.5-3.1-12.7-6.7-19.1-9.9
		c-5.8,3-11.5,6.3-17.4,9.1c-2,1.4-4.9-0.5-4.7-2.8c0.6-6.7,2.3-13.3,3.3-20c-4.6-4.5-9.4-8.9-13.9-13.5c-1.9-1.5-1.4-5.2,1.1-5.6
		c6.5-1.6,13.4-1.5,19.9-3.2C103.8,16,106.1,9.5,109.6,3.8z"/>
	<path class="st0" d="M189.6,3.9c1-1.6,3.5-1.9,4.7-0.4c3.9,5.7,5.7,12.8,9.8,18.4c6.4,1.7,13.2,1.6,19.7,3.3c2.3,0.6,3,3.6,1.2,5.2
		c-4.5,4.8-9.4,9.1-14.1,13.8c1.1,6.7,2.6,13.4,3.3,20.1c0.3,2.1-2.5,3.8-4.3,2.8c-6.1-2.8-11.8-6.3-17.9-9.2
		c-5.8,3-11.5,6.3-17.4,9.2c-1.9,1.3-4.8-0.5-4.6-2.7c0.6-6.8,2.3-13.4,3.3-20.1c-4.6-4.5-9.5-8.9-13.9-13.6c-1.8-1.5-1.3-5,1.1-5.5
		c6.6-1.7,13.4-1.5,19.9-3.3C183.9,16,186.2,9.6,189.6,3.9z"/>
	<path class="st0" d="M271.7,3.9c1-1.9,4.3-1.9,5.1,0.2c3.5,5.7,5.5,12.2,9.3,17.7c6.5,1.7,13.3,1.6,19.7,3.3
		c2.3,0.4,3.1,3.7,1.3,5.2c-4.5,4.8-9.4,9.1-14,13.8c1,6.7,2.5,13.3,3.2,20.1c0.3,1.9-1.8,3.2-3.4,3.2c-6.6-2.4-12.3-7.2-19-9.1
		c-6,2.4-11.3,6.1-17.1,8.8c-2.4,1.6-5.6-1.2-4.6-3.9c1-6.3,2.2-12.6,3.2-18.9c-4.6-4.6-9.4-9-14-13.7c-1.9-1.4-1.3-5,1.2-5.4
		c6.5-1.6,13.4-1.5,19.9-3.3C266,16,268.2,9.6,271.7,3.9z"/>
	<path class="st0" d="M347.7,3.9c1.2-1.8,4.2-1.9,5.2,0.2c3.4,5.7,5.6,12.2,9.2,17.7c6.5,1.7,13.3,1.6,19.8,3.3
		c2.3,0.4,2.9,3.8,1.1,5.2c-4.5,4.7-9.4,9.1-14,13.8c1.1,6.7,2.6,13.3,3.3,20c0.3,2.2-2.4,3.9-4.3,2.8c-6.2-2.5-11.6-6.8-18-8.8
		c-6,2.4-11.4,6.2-17.3,8.8c-1.9,1.3-4.8-0.6-4.5-2.8c0.6-6.7,2.3-13.3,3.2-20c-4.6-4.6-9.5-8.9-14-13.7c-1.8-1.5-1.2-5,1.2-5.4
		c6.5-1.6,13.4-1.5,19.9-3.2C342,16,344.2,9.6,347.7,3.9z"/>
</g>
</svg>
