<svg width="106" height="21" viewBox="0 0 106 21" fill="none" xmlns="http://www.w3.org/2000/svg">
<g clip-path="url(#clip0_39_173)">
<path d="M9.89521 20.3665C4.25646 20.2026 -0.070947 15.8205 8.37434e-05 10.2965C0.0711144 4.65779 4.60069 0.374097 10.1083 0.461519C15.4902 0.548942 19.9816 4.69604 19.9324 10.4495C19.8832 16.4981 15.0695 20.3173 9.89521 20.361V20.3665ZM19.1456 10.4386C19.2767 5.77243 15.5394 1.19915 9.94438 1.21554C4.73729 1.23193 0.792349 5.22604 0.76503 10.3676C0.73771 15.4818 4.67718 19.6016 9.98809 19.5906C15.6159 19.5742 19.2439 14.9791 19.1401 10.4386H19.1456Z" fill="white"/>
<path d="M29.0078 10.2691C30.0023 10.7608 30.3738 11.5149 30.953 12.0776C31.6414 12.7497 31.9201 12.7879 32.7779 12.3563C33.3298 11.5476 32.3736 11.1378 32.2698 10.5368C32.3791 10.2199 32.5539 10.0341 32.9309 9.99589C33.603 10.4767 33.5866 11.1597 33.4336 11.9137C33.2314 12.9136 32.6632 13.4819 31.5977 13.5911C30.8601 13.5092 30.2645 13.0994 29.7564 12.5366C29.5979 12.3618 29.4286 12.2033 29.2865 12.0175C28.6581 11.1761 27.9478 10.4439 26.7786 10.2472C27.0408 9.81012 27.3741 9.95218 27.6419 9.94671C28.5161 9.93579 29.3302 9.71177 30.0733 9.2528C30.953 8.70641 31.2972 7.89775 31.248 6.89239C31.1989 5.90889 30.6853 5.23683 29.8165 4.81065C28.762 4.29158 27.6473 4.31343 26.5327 4.41725C26.2431 5.23683 26.1502 9.79372 26.3524 12.7278C26.4835 13.1158 27.0354 12.8808 27.2048 13.3453C26.1611 13.5201 25.1503 13.3999 24.1067 13.4272C24.1559 12.8808 24.6804 13.0885 24.9208 12.7552V4.60302C24.7023 4.23147 24.2488 4.47735 24.0958 4.13312C24.0521 4.04024 24.0794 3.95828 24.1832 3.95828C26.1174 3.9091 28.0517 3.7124 29.9804 4.09488C30.5651 4.20962 31.0896 4.46096 31.5486 4.82157C33.226 6.1493 32.9746 8.56981 31.0513 9.65713C30.5104 9.9631 29.9148 10.1379 29.0133 10.2636L29.0078 10.2691Z" fill="white"/>
<path d="M66.8563 13.1596C66.9765 12.799 67.4464 13.0722 67.6759 12.6569V4.52116C67.5557 4.19879 67.053 4.33539 66.8563 3.9857C66.9656 3.94745 67.0639 3.88188 67.1623 3.88188C68.643 3.87642 70.1237 3.88188 71.5989 3.88188C72.1125 3.88188 72.6043 3.99116 73.0633 4.21518C74.462 4.89817 74.697 6.37889 73.5769 7.44981C73.4403 7.58094 73.2764 7.69022 73.0851 7.83775C73.2545 8.16012 73.6206 8.12187 73.8665 8.24754C74.8172 8.72836 75.38 9.47145 75.3964 10.5315C75.4128 11.5477 74.8609 12.2744 73.9976 12.7826C73.3419 13.165 72.6152 13.3454 71.8831 13.3727C70.2876 13.4219 68.6922 13.3945 67.0967 13.3945C66.982 13.3945 66.8781 13.329 66.8508 13.176L66.8563 13.1596ZM69.4844 7.94156C69.9106 7.72301 70.3477 7.85414 70.763 7.84868C71.282 7.84321 71.7629 7.75033 72.2164 7.49899C72.9376 7.09466 73.2381 6.46631 73.1015 5.65219C72.9868 4.9692 72.4568 4.47198 71.6372 4.38456C70.834 4.3026 70.0199 4.29714 69.2331 4.38456C68.9981 4.75064 68.9544 5.08394 68.9544 5.4391C68.9544 7.5263 68.9544 9.60805 68.9544 11.6953C68.9544 12.1214 68.9653 12.5531 69.3915 12.8809C70.5991 12.9793 71.8339 13.0448 72.9922 12.4384C73.779 12.0286 74.2325 11.362 74.1888 10.4768C74.1451 9.60259 73.6643 8.95238 72.8502 8.59723C72.424 8.41146 71.976 8.29125 71.4951 8.30764C70.9925 8.32403 70.4843 8.31311 69.9816 8.30764C69.7849 8.30764 69.5882 8.29671 69.4899 7.94156H69.4844Z" fill="white"/>
<path d="M89.4386 12.5584C89.4386 11.2744 89.4714 9.84287 89.4276 8.41679C89.4003 7.45515 88.5698 6.84865 87.559 7.00711C86.794 7.12185 86.1548 7.45515 85.745 8.29112V12.6841C85.8652 13.1103 86.428 12.8207 86.5755 13.1922C86.5755 13.4982 84.7506 13.5419 83.6359 13.2578C83.7288 12.8152 84.3025 13.072 84.4828 12.5857V7.61906C84.2752 7.2202 83.7889 7.50979 83.6687 7.05082C84.226 6.73391 84.8598 6.61371 85.4008 6.41701C85.8597 6.60278 85.5756 7.03443 85.8324 7.25845C86.6083 6.54268 87.5153 6.20938 88.5917 6.38422C89.9194 6.60278 90.586 7.31855 90.6079 8.65174C90.6297 10.0013 90.6079 11.3564 90.6079 12.5202C90.7936 13.1103 91.3619 12.8152 91.493 13.2141C91.422 13.5201 89.5315 13.531 88.5534 13.2414C88.6572 12.8535 89.1217 13.0556 89.444 12.553L89.4386 12.5584Z" fill="white"/>
<path d="M48.585 9.96314C48.6451 11.6569 47.6124 13.5311 45.1646 13.5912C42.7878 13.6458 41.5857 11.8045 41.553 9.99592C41.5147 7.93603 43.0446 6.34604 45.0772 6.2914C47.0824 6.24223 48.5959 7.82129 48.5905 9.96314H48.585ZM47.3665 9.90304C47.4157 9.16541 47.2299 8.4551 46.8529 7.81036C46.0334 6.40068 44.3723 6.34604 43.4216 7.67923C42.5692 8.87583 42.5911 11.0996 43.4599 12.2634C44.3942 13.5256 46.0115 13.471 46.8256 12.1268C47.2354 11.4548 47.4157 10.7062 47.3665 9.90304Z" fill="white"/>
<path d="M82.9256 9.91397C82.9693 11.7826 81.7563 13.5529 79.4232 13.6021C77.4125 13.6458 75.8772 11.9957 75.8826 9.93036C75.8881 7.87594 77.4398 6.29687 79.4615 6.28594C81.3684 6.27502 82.9147 7.89779 82.9256 9.91397ZM81.7236 9.95768C81.7126 9.12717 81.5105 8.38954 81.0952 7.72295C80.2702 6.40615 78.5818 6.37337 77.7458 7.6847C76.8388 9.10532 76.888 10.9084 77.7841 12.2744C78.6037 13.5201 80.2483 13.4819 81.0624 12.2143C81.5159 11.5149 81.7072 10.739 81.7236 9.95222V9.95768Z" fill="white"/>
<path d="M34.0346 9.92488C34.0401 7.88138 35.5536 6.29138 37.4823 6.29138C39.504 6.29138 41.0557 7.86498 41.0667 9.92488C41.0776 11.9902 39.5532 13.6458 37.5315 13.6021C35.1219 13.5529 33.9636 11.728 34.0346 9.92488ZM35.2312 9.89756C35.2258 10.6024 35.4771 11.6296 35.7776 12.1159C36.6464 13.531 38.444 13.542 39.2745 12.0995C40.0613 10.7281 40.034 9.30199 39.3401 7.89777C38.9685 7.14921 38.3183 6.70664 37.4769 6.73942C36.6409 6.7722 36.0235 7.22571 35.6738 8.00158C35.4006 8.60261 35.2367 9.23642 35.2367 9.90302L35.2312 9.89756Z" fill="white"/>
<path d="M98.3721 9.95221H93.4545C93.3944 11.0668 93.684 11.9629 94.5473 12.5312C96.0171 13.4928 97.241 12.788 98.312 11.7553C98.5906 12.0012 98.454 12.1706 98.3393 12.3126C97.3503 13.542 95.9024 13.6677 94.5145 13.3289C93.1486 12.9956 92.3235 11.8864 92.2088 10.4549C92.1377 9.55881 92.1705 8.68458 92.6568 7.87593C93.4054 6.63562 94.673 6.11109 96.2685 6.42253C97.6126 6.6848 98.4977 7.64644 98.6726 9.0452C98.6944 9.20183 98.5906 9.50599 98.3611 9.95767L98.3721 9.95221ZM97.3066 9.41128C97.8366 8.19283 97.252 7.11098 96.0663 6.91975C94.5091 6.67387 93.5474 7.61366 93.5584 9.43314C94.826 9.455 96.0881 9.50963 97.3066 9.40582V9.41128Z" fill="white"/>
<path d="M104.093 8.27472C103.568 8.00699 103.552 7.50978 103.284 7.2038C102.781 6.96339 102.182 6.88507 101.486 6.96885C101.137 7.14369 100.869 7.40596 100.76 7.81029C100.793 8.38946 101.159 8.70637 101.667 8.88668C102.251 9.09431 102.842 9.28008 103.421 9.49317C104.131 9.75544 104.737 10.1543 105.065 10.8591C105.207 12.5366 104.732 13.1704 103.066 13.5146C101.7 13.7987 100.35 13.3398 99.596 12.3344C99.9129 12.1104 100.11 12.4109 100.312 12.5311C101.126 13.0174 102.011 13.0502 102.907 12.9518C103.754 12.8644 104.087 12.4164 104.109 11.4438C103.765 10.8154 103.104 10.6515 102.497 10.4166C101.956 10.2089 101.388 10.0669 100.864 9.81554C100.06 9.43307 99.6725 8.76647 99.7653 8.07802C99.8801 7.22019 100.443 6.63009 101.339 6.43339C102.033 6.2804 102.732 6.32957 103.415 6.4771C103.836 6.56999 104.207 6.794 104.475 7.14916C104.825 7.60813 104.727 7.88678 104.087 8.26379L104.093 8.27472Z" fill="white"/>
<path d="M49.492 7.07827C49.0713 6.83786 48.7216 7.03456 48.4593 6.81054C48.4757 6.73951 48.4921 6.60838 48.514 6.60838C49.7652 6.48271 50.1805 5.69044 50.2078 4.56488C50.2078 4.51024 50.3061 4.46106 50.4482 4.31354C50.858 4.96921 50.4974 5.68498 50.7105 6.30786C50.9891 6.64116 51.5464 6.26415 51.8469 6.6958C51.541 7.09466 51.082 6.79961 50.6449 7.10013C50.6449 7.99621 50.6012 8.99064 50.6558 9.9796C50.7105 10.9522 50.3717 11.9794 50.9509 12.8427C51.5737 13.1377 52.1311 12.8645 52.6939 12.8427C52.1639 13.5366 51.4535 13.706 50.6886 13.5639C49.9728 13.4328 49.5576 12.8755 49.4975 12.0395C49.4538 11.351 49.4811 10.6517 49.4811 9.95775C49.4811 8.9961 49.4811 8.03992 49.4811 7.08373L49.492 7.07827Z" fill="white"/>
<path d="M3.40402 6.46621C4.19082 6.31869 5.00495 6.37333 5.80814 6.42797C6.41463 6.47168 6.80803 6.83776 6.95556 7.41693C7.25061 8.54796 7.28339 9.63527 6.3436 10.4767C7.49648 11.6023 7.03752 12.9846 7.11947 14.2413C6.75339 14.4818 6.45834 14.4271 6.11412 14.3342C6.11412 13.1393 6.29989 12.2634 5.63876 11.3018C5.52402 11.2526 5.39288 11.1652 5.24536 11.1433C5.05958 11.1105 4.86288 11.0723 4.59515 11.2908V14.2031C4.15681 14.5249 3.94365 14.4216 3.4532 14.4216C3.4532 13.5656 3.45319 7.56992 3.40949 6.46621H3.40402ZM4.62247 10.0615C5.05958 9.9795 5.42567 10.0287 5.76443 9.72816C6.0267 9.01785 6.15236 8.2693 5.66608 7.56992C5.27814 7.38415 4.95577 7.32951 4.61701 7.56446V10.0615H4.62247Z" fill="white"/>
<path d="M15.8508 10.1051C16.9763 11.4383 16.9108 13.2578 15.6431 14.3069C14.7798 14.4872 13.8619 14.4271 12.944 14.3724C12.7363 13.5201 12.8968 8.02321 12.7902 6.4244C13.2165 6.42444 13.7636 6.39514 14.2116 6.39514C14.676 6.39514 15.0285 6.50175 15.4548 6.63761C16.7338 7.80762 16.8944 8.70637 15.8453 10.1051H15.8508ZM13.9821 13.3507C14.4356 13.4272 14.8399 13.4818 15.2607 13.1868C15.4246 12.4601 15.4956 11.7224 15.1896 11.0067C14.7689 10.7827 14.3755 10.7772 13.9821 10.8318V13.3561V13.3507ZM13.9821 7.5371C13.9603 8.28019 13.8892 8.96317 14.0149 9.62431C14.4903 9.77183 14.8891 9.75544 15.1186 9.38389C15.4738 8.81565 15.4027 8.22008 15.1241 7.70101C14.7087 7.59688 14.4369 7.5371 13.9767 7.54256L13.9821 7.5371Z" fill="white"/>
<path d="M62.2885 11.199H59.9468V13.5406H59.1662V11.199H56.8246V10.4184H59.1662V8.07672H59.9468V10.4184H62.2885V11.199Z" fill="white"/>
<path d="M12.0206 11.121H10.1472V12.9943H9.5228V11.121H7.64946V10.4965H9.5228V8.62317H10.1472V10.4965H12.0206V11.121Z" fill="white"/>
</g>
<defs>
<clipPath id="clip0_39_173">
<rect width="105.093" height="19.905" fill="white" transform="translate(0 0.461426)"/>
</clipPath>
</defs>
</svg>
