<svg width="32" height="15" viewBox="0 0 32 15" fill="none" xmlns="http://www.w3.org/2000/svg">
<path fill-rule="evenodd" clip-rule="evenodd" d="M21.6915 13.3401H26.9494C29.0348 13.3401 31.1202 12.1038 31.1202 9.71484C31.1202 7.96069 30.1192 7.09201 29.0515 6.74118C29.9357 6.2567 30.5196 5.60516 30.5196 4.4023C30.5196 3.18277 29.8523 1.41192 26.7159 1.41192H20.1927V10.2135L21.6915 13.3401ZM25.7983 4.25196H23.863V6.05621H25.7983C26.5824 6.05621 27.0495 5.85573 27.0495 5.07057C27.0495 4.46914 26.549 4.25196 25.7983 4.25196ZM26.1653 8.27814H23.863V10.5H26.0152C26.7659 10.5 27.4499 10.2828 27.4499 9.36401C27.4499 8.64566 27.0162 8.27814 26.1653 8.27814Z" fill="white"/>
<path fill-rule="evenodd" clip-rule="evenodd" d="M10.9295 7.87117C10.3285 6.87564 9.16122 6.40924 7.98585 6.07222C7.68883 5.99511 7.38969 5.9243 7.09828 5.85535C5.74939 5.53613 4.56614 5.25611 4.52491 4.5696C4.52491 3.90176 5.34418 3.76819 5.84573 3.76819C6.23029 3.76819 6.61485 3.85167 6.93252 4.06871C7.2502 4.26908 7.43411 4.5696 7.36723 5.02039H10.8449C10.7613 2.13199 8.45398 1.13024 5.86246 1.13024C3.4047 1.13024 1.04725 2.31565 1.04725 5.07046C1.04725 7.38923 3.05345 7.95308 4.89097 8.46952C4.9587 8.48856 5.0262 8.50752 5.09338 8.52652C7.14986 9.11087 7.66818 9.29456 7.66818 9.8956C7.66818 10.7805 6.74861 10.9808 6.14672 10.9808C5.46121 10.9808 4.65868 10.8306 4.39115 10.1126C4.30754 9.87891 4.25739 9.61177 4.25739 9.32794H0.579102C0.579102 13.1346 4.49145 13.6188 5.82904 13.6188C7.17082 13.6188 8.55471 13.3667 9.60085 12.7237L9.10537 11.7952L10.9295 7.87117Z" fill="white"/>
<path d="M14.9864 0.370056L21.7142 14.5798H18.4992L14.9864 7.14793L13.0216 11.1908H9.86611L14.9864 0.370056Z" fill="white"/>
<path d="M11.1918 14.6201H18.0317L15.0578 8.25578L13.333 11.7056H9.58593L11.1918 14.6201Z" fill="white"/>
</svg>
