<svg width="53" height="53" viewBox="0 0 53 53" fill="none" xmlns="http://www.w3.org/2000/svg">
<path d="M3.02832 1.27539C3.05709 1.27611 3.08379 1.27766 3.14062 1.28027C3.18921 1.28251 3.26088 1.28516 3.33789 1.28516C8.96921 1.28516 14.6003 1.28527 20.2295 1.28711H20.2305C20.5982 1.28711 20.7721 1.28699 20.9199 1.31836V1.31934C21.7247 1.49294 22.2475 2.0832 22.2949 3.04492V20.2188C22.2949 20.4856 22.2959 20.6043 22.2793 20.7119L22.2783 20.7178C22.1962 21.2662 21.9718 21.6391 21.6963 21.8779C21.4201 22.1173 21.0119 22.2912 20.4414 22.2988C19.3503 22.3134 18.2699 22.3027 17.1504 22.3027C12.5511 22.3027 7.95875 22.3077 3.36426 22.293H3.35938C2.97739 22.2929 2.62717 22.2457 2.35156 22.1523L2.3457 22.1504C1.7561 21.9534 1.33893 21.442 1.28711 20.6992L1.28223 20.5469C1.27486 17.6072 1.28027 14.6696 1.28027 11.7246C1.28027 8.82801 1.27843 5.93404 1.28027 3.03906C1.28146 2.29154 1.55742 1.82748 2.14941 1.50879C2.3206 1.41738 2.49325 1.39753 3.02441 1.27539C3.02566 1.27542 3.02697 1.27536 3.02832 1.27539Z" fill="#24A9EF" stroke="#24A9EF" stroke-width="2.55"/>
<path d="M33.6865 1.2832H38.1943L38.1924 1.28516H41.2695C44.1405 1.28516 47.0149 1.28873 49.8896 1.2832C50.3465 1.28327 50.6728 1.374 50.9434 1.55469L50.9443 1.55566C51.4306 1.87949 51.6698 2.30047 51.7109 2.93164V2.93262C51.7174 3.0445 51.7129 3.12366 51.7129 3.34277C51.7129 8.9741 51.7128 14.6052 51.7109 20.2344V20.2354C51.7109 20.6033 51.7101 20.777 51.6787 20.9248C51.5046 21.733 50.9151 22.2544 49.957 22.3018H49.6074C43.9988 22.3018 38.391 22.306 32.7852 22.2949H32.7832C32.4324 22.2949 32.1108 22.2578 31.8438 22.1816H31.8447C31.2561 22.0125 30.7562 21.4314 30.7002 20.5889V20.5859L30.6992 20.1904C30.6992 14.582 30.6959 8.97412 30.7051 3.36816V3.36621C30.7051 2.99868 30.7377 2.67539 30.8105 2.41113V2.41016C30.9703 1.8283 31.6032 1.31628 32.29 1.28906H32.293C32.7386 1.27029 33.1596 1.2832 33.6865 1.2832Z" stroke="black" stroke-width="2.55"/>
<path d="M20.209 30.2842H20.2119C20.5632 30.2842 20.8823 30.3218 21.1465 30.3984H21.1484C21.7401 30.5691 22.2375 31.146 22.2949 31.9932V31.9951C22.3019 32.097 22.2969 32.17 22.2969 32.3906C22.2969 37.9996 22.3028 43.6059 22.2881 49.2109V49.2148C22.2881 49.498 22.261 49.7687 22.208 50.0059L22.1465 50.2295C21.9386 50.8537 21.3612 51.2863 20.6064 51.293C18.9362 51.3077 17.2737 51.2959 15.583 51.2959H11.7217C8.85074 51.2959 5.97588 51.2915 3.10059 51.2988C2.74648 51.2987 2.47285 51.2431 2.24512 51.1348L2.14941 51.085C1.59206 50.7648 1.32223 50.3242 1.2793 49.6396C1.26966 49.4852 1.27831 49.3835 1.27832 49.0986C1.27832 43.49 1.2741 37.8822 1.28516 32.2764V32.2744C1.28516 31.8813 1.32613 31.5802 1.40332 31.375L1.40234 31.374C1.54963 30.9853 1.75156 30.7515 1.97363 30.5986C2.20598 30.4389 2.53688 30.3171 3.00879 30.2783L3.00781 30.2773C3.09963 30.27 3.14817 30.2773 3.3877 30.2773C8.99616 30.2773 14.6033 30.2731 20.209 30.2842Z" stroke="black" stroke-width="2.55"/>
<path d="M44.1611 44.1643V50.0317H38.3121C38.196 49.3755 38.2698 48.7358 38.2568 48.0999C38.2439 47.4565 38.2532 46.8114 38.2532 46.168V44.1698H32.4355V38.2693H38.2292C38.2771 37.2536 38.2476 36.2951 38.2513 35.3384C38.2568 34.3982 38.2513 33.4581 38.2513 32.5309C38.7527 32.3779 43.2173 32.3429 44.1482 32.4812V38.2472C45.1565 38.2674 46.1132 38.2545 47.0681 38.2582C48.0303 38.2601 48.9925 38.2582 49.94 38.2582C50.0912 38.7983 50.1372 42.7007 50.0193 44.1127C49.3962 44.2215 48.7584 44.1477 48.1243 44.1606C47.481 44.1735 46.8358 44.1643 46.1925 44.1643H44.1574H44.1611Z" fill="#24A9EF"/>
</svg>
