<svg width="54" height="54" viewBox="0 0 54 54" fill="none" xmlns="http://www.w3.org/2000/svg">
<path d="M13.0715 19.7715C7.21939 19.7715 1 21.6899 1 25.245V47.5309C1 51.0834 7.21939 53.0004 13.0715 53.0004C18.9237 53.0004 25.1431 51.0834 25.1431 47.5309V25.245C25.1431 21.6899 18.9237 19.7715 13.0715 19.7715ZM23.2859 47.5309C23.2859 49.0394 19.4002 51.1432 13.0715 51.1432C6.74287 51.1432 2.85716 49.0394 2.85716 47.5309V44.9639C5.13666 46.5765 9.17993 47.4289 13.0715 47.4289C16.9631 47.4289 21.0064 46.5765 23.2859 44.9639V47.5309ZM23.2859 41.9595C23.2859 43.468 19.4002 45.5718 13.0715 45.5718C6.74287 45.5718 2.85716 43.468 2.85716 41.9595V39.3924C5.13666 41.005 9.17993 41.8574 13.0715 41.8574C16.9631 41.8574 21.0064 41.005 23.2859 39.3924V41.9595ZM23.2859 36.388C23.2859 37.8965 19.4002 40.0003 13.0715 40.0003C6.74287 40.0003 2.85716 37.8965 2.85716 36.388V33.821C5.13666 35.4335 9.17993 36.286 13.0715 36.286C16.9631 36.286 21.0064 35.4335 23.2859 33.821V36.388ZM23.2859 30.8165C23.2859 32.325 19.4002 34.4288 13.0715 34.4288C6.74287 34.4288 2.85716 32.325 2.85716 30.8165V28.252C5.13666 29.866 9.17993 30.719 13.0715 30.719C16.9631 30.719 21.0064 29.866 23.2859 28.252V30.8165ZM13.0715 28.8618C6.74287 28.8618 2.85716 26.7553 2.85716 25.245C2.85716 23.7347 6.74287 21.6286 13.0715 21.6286C19.4002 21.6286 23.2859 23.7347 23.2859 25.245C23.2859 26.7553 19.4002 28.8618 13.0715 28.8618Z" fill="black" stroke="black" stroke-width="0.5"/>
<path d="M40.929 19.7715C35.0768 19.7715 28.8574 21.6899 28.8574 25.245V47.5309C28.8574 51.0834 35.0768 53.0004 40.929 53.0004C46.7811 53.0004 53.0005 51.0834 53.0005 47.5309V25.245C53.0005 21.6899 46.7811 19.7715 40.929 19.7715ZM51.1433 47.5309C51.1433 49.0394 47.2576 51.1432 40.929 51.1432C34.6003 51.1432 30.7146 49.0394 30.7146 47.5309V44.9639C32.9941 46.5765 37.0374 47.4289 40.929 47.4289C44.8206 47.4289 48.8638 46.5765 51.1433 44.9639V47.5309ZM51.1433 41.9595C51.1433 43.468 47.2576 45.5718 40.929 45.5718C34.6003 45.5718 30.7146 43.468 30.7146 41.9595V39.3924C32.9941 41.005 37.0374 41.8574 40.929 41.8574C44.8206 41.8574 48.8638 41.005 51.1433 39.3924V41.9595ZM51.1433 36.388C51.1433 37.8965 47.2576 40.0003 40.929 40.0003C34.6003 40.0003 30.7146 37.8965 30.7146 36.388V33.821C32.9941 35.4335 37.0374 36.286 40.929 36.286C44.8206 36.286 48.8638 35.4335 51.1433 33.821V36.388ZM51.1433 30.8165C51.1433 32.325 47.2576 34.4288 40.929 34.4288C34.6003 34.4288 30.7146 32.325 30.7146 30.8165V28.252C32.9941 29.866 37.0374 30.719 40.929 30.719C44.8206 30.719 48.8638 29.866 51.1433 28.252V30.8165ZM40.929 28.8618C34.6003 28.8618 30.7146 26.7553 30.7146 25.245C30.7146 23.7347 34.6003 21.6286 40.929 21.6286C47.2576 21.6286 51.1433 23.7347 51.1433 25.245C51.1433 26.7553 47.2576 28.8618 40.929 28.8618Z" fill="black" stroke="black" stroke-width="0.5"/>
<path d="M13.0712 13.0715C13.3174 13.0715 13.5536 12.9737 13.7278 12.7996C13.9019 12.6254 13.9997 12.3892 13.9997 12.143V4.71432C14.0002 4.22192 14.1961 3.74983 14.5442 3.40165C14.8924 3.05347 15.3645 2.85765 15.8569 2.85716H38.1428C38.6352 2.85765 39.1073 3.05347 39.4555 3.40165C39.8036 3.74983 39.9995 4.22192 40 4.71432V9.90131L38.7993 8.70065C38.6248 8.52835 38.3892 8.43207 38.144 8.43285C37.8988 8.43362 37.6638 8.53139 37.4904 8.7048C37.317 8.87821 37.2192 9.11318 37.2185 9.35842C37.2177 9.60365 37.314 9.83923 37.4863 10.0137L40.272 12.7995C40.3582 12.8857 40.4606 12.9541 40.5732 13.0008C40.6859 13.0475 40.8066 13.0715 40.9286 13.0715C41.0505 13.0715 41.1713 13.0475 41.2839 13.0008C41.3966 12.9541 41.4989 12.8857 41.5851 12.7995L44.3708 10.0137C44.458 9.9277 44.5272 9.8253 44.5746 9.71242C44.6219 9.59954 44.6465 9.47841 44.6469 9.35599C44.6473 9.23357 44.6235 9.11228 44.5768 8.9991C44.5301 8.88593 44.4615 8.7831 44.375 8.69654C44.2884 8.60997 44.1856 8.54139 44.0724 8.49472C43.9592 8.44805 43.8379 8.42422 43.7155 8.42461C43.5931 8.425 43.4719 8.44959 43.3591 8.49698C43.2462 8.54436 43.1438 8.6136 43.0578 8.70071L41.8571 9.90131V4.71432C41.856 3.72957 41.4643 2.78547 40.768 2.08914C40.0717 1.39282 39.1276 1.00113 38.1428 1H15.8569C14.8721 1.00113 13.928 1.39282 13.2317 2.08914C12.5354 2.78547 12.1437 3.72957 12.1426 4.71432V12.143C12.1426 12.3892 12.2404 12.6254 12.4146 12.7996C12.5887 12.9737 12.8249 13.0715 13.0712 13.0715Z" fill="#24A9EF" stroke="#24A9EF" stroke-width="0.5"/>
</svg>
