<svg width="55" height="55" viewBox="0 0 55 55" fill="none" xmlns="http://www.w3.org/2000/svg">
<g clip-path="url(#clip0_1644_854)">
<path d="M47.67 24.9295C47.5 24.9295 47.32 24.8995 47.16 24.8295L41.38 22.5295C41.04 22.3995 40.77 22.1395 40.63 21.7995C40.49 21.4595 40.48 21.0895 40.61 20.7495C40.74 20.4195 40.99 20.1595 41.31 20.0095C41.74 19.8095 42.08 19.4595 42.25 19.0195C42.43 18.5695 42.42 18.0695 42.23 17.6195C42.04 17.1695 41.68 16.8195 41.22 16.6395C41 16.5495 40.77 16.5095 40.54 16.5095C39.78 16.5095 39.11 16.9595 38.83 17.6695C38.65 18.0995 38.65 18.5895 38.83 19.0195C39.12 19.7095 38.8 20.5095 38.11 20.8095C37.94 20.8795 37.76 20.9195 37.57 20.9195C37.4 20.9195 37.23 20.8895 37.06 20.8195L31.26 18.5095C30.92 18.3795 30.65 18.1195 30.51 17.7795C30.36 17.4395 30.36 17.0695 30.49 16.7295L31.99 12.9695C31.71 12.9095 31.43 12.8295 31.16 12.7195C30.03 12.2695 29.14 11.3995 28.66 10.2695C28.18 9.13949 28.17 7.89949 28.62 6.76949C29.32 5.02949 30.99 3.89949 32.86 3.89949C33.44 3.89949 34.02 4.00949 34.56 4.22949C34.82 4.32949 35.06 4.45949 35.3 4.60949L36.8 0.839492C37.01 0.319492 37.51 -0.0205078 38.07 -0.0205078C38.24 -0.0205078 38.41 0.00949218 38.57 0.0794922L53.06 5.83949C54.53 6.42949 55.25 8.09949 54.67 9.56949L48.92 24.0495C48.71 24.5795 48.21 24.9195 47.65 24.9195L47.67 24.9295Z" fill="#24A9EF"/>
<path d="M3.3 54.4899C1.48 54.4899 0 53.0099 0 51.1899V11.4199C0 9.59988 1.49 8.12988 3.3 8.12988H23.18C23.93 8.12988 24.55 8.73988 24.55 9.49988V17.4499C24.55 18.1999 23.94 18.8199 23.19 18.8199C22.82 18.8199 22.48 18.6799 22.23 18.4299C21.73 17.9499 21.07 17.6799 20.36 17.6799C18.85 17.6799 17.63 18.8999 17.63 20.3999C17.63 21.8999 18.85 23.1199 20.35 23.1199C21.07 23.1199 21.73 22.8499 22.23 22.3699C22.48 22.1199 22.82 21.9799 23.18 21.9799C23.54 21.9799 23.9 22.1299 24.16 22.3899C24.41 22.6499 24.55 22.9899 24.55 23.3499V29.9299H28.83C28.13 27.4099 29.33 24.6699 31.77 23.5199C32.5 23.1799 33.28 22.9999 34.09 22.9999C36.2 22.9999 38.14 24.2299 39.04 26.1399C39.6 27.3399 39.71 28.6799 39.36 29.9299H45C45.75 29.9299 46.37 30.5399 46.37 31.2999V51.1999C46.37 53.0099 44.89 54.4899 43.08 54.4999H3.3V54.4899ZM43.06 51.7599C43.37 51.7599 43.62 51.5099 43.62 51.1999V32.6599H37.05C36.68 32.6599 36.34 32.5199 36.08 32.2599C35.82 31.9999 35.68 31.6599 35.68 31.2899C35.68 30.9399 35.81 30.5999 36.06 30.3499C37.09 29.2599 37.05 27.5399 35.96 26.5099C35.45 26.0299 34.79 25.7599 34.09 25.7599C33.34 25.7599 32.63 26.0599 32.12 26.6099C31.64 27.1199 31.37 27.7799 31.37 28.4799C31.37 29.1699 31.64 29.8499 32.12 30.3399C32.38 30.5999 32.52 30.9499 32.51 31.3099C32.5 31.6699 32.36 32.0199 32.1 32.2699C31.85 32.5199 31.51 32.6599 31.15 32.6599H24.55V36.9699C25.04 36.8299 25.55 36.7599 26.06 36.7599C27.55 36.7599 28.93 37.3499 29.96 38.4199C32.05 40.5899 31.98 44.0499 29.82 46.1399C28.8 47.1199 27.46 47.6599 26.04 47.6699C25.54 47.6699 25.05 47.5999 24.57 47.4599V51.7799H43.08L43.06 51.7599ZM2.72 51.1999C2.72 51.5099 2.98 51.7599 3.29 51.7599H21.83V45.2199C21.78 44.8899 21.91 44.4999 22.17 44.2099C22.37 43.9899 22.63 43.8499 22.92 43.7899L22.94 43.7699H23.32C23.45 43.7899 23.57 43.8199 23.68 43.8699C23.81 43.9199 23.92 43.9999 23.99 44.0499L24.07 44.0899L24.1 44.1299C24.66 44.6599 25.32 44.9199 26.02 44.9199C26.76 44.9199 27.46 44.6299 27.98 44.0899C29.02 43.0099 28.99 41.2899 27.91 40.2499C27.4 39.7599 26.73 39.4899 26.03 39.4899C25.33 39.4899 24.67 39.7499 24.17 40.2299C23.96 40.4599 23.65 40.5999 23.31 40.6299H23.3H23.12L23 40.5999C23 40.5999 23 40.5999 22.99 40.5999C22.95 40.5999 22.82 40.5799 22.69 40.5299C22.58 40.4899 22.5 40.4299 22.44 40.3899C22.41 40.3799 22.34 40.3399 22.27 40.2699L22.2 40.2099V40.1899C21.96 39.9399 21.83 39.6199 21.83 39.2699V32.6699H17.54C17.68 33.1599 17.75 33.6599 17.75 34.1599C17.75 37.1599 15.29 39.5999 12.29 39.6099C9.28 39.6099 6.84 37.1699 6.84 34.1599C6.84 33.6599 6.91 33.1699 7.06 32.6799H2.73V51.2099L2.72 51.1999ZM9.34 29.9299C10.09 29.9299 10.71 30.5399 10.71 31.2999C10.71 31.4499 10.68 31.5599 10.65 31.6399C10.65 31.6399 10.64 31.7299 10.6 31.8199C10.55 31.9399 10.49 32.0299 10.44 32.0799C10.44 32.0999 10.39 32.1699 10.32 32.2499C9.81 32.7699 9.54 33.4599 9.55 34.1799C9.56 34.8999 9.85 35.5799 10.37 36.0899C10.88 36.5899 11.55 36.8599 12.26 36.8599C13.76 36.8599 14.98 35.6399 14.99 34.1399C14.99 33.4299 14.73 32.7599 14.23 32.2599C13.98 32.0299 13.83 31.6899 13.82 31.3299C13.81 30.9599 13.94 30.6199 14.19 30.3499C14.44 30.0799 14.8 29.9299 15.18 29.9299H15.3H21.79V25.6599C21.32 25.7899 20.83 25.8599 20.34 25.8599C18.23 25.8599 16.29 24.6299 15.4 22.7199C14.13 19.9999 15.31 16.7399 18.03 15.4699C18.75 15.1299 19.55 14.9599 20.34 14.9599C20.83 14.9599 21.32 15.0299 21.8 15.1599V10.8899H3.3C2.99 10.8899 2.74 11.1399 2.73 11.4499V29.9299H9.35H9.34Z" fill="#1C1D1F"/>
</g>
<defs>
<clipPath id="clip0_1644_854">
<rect width="54.89" height="54.49" fill="white"/>
</clipPath>
</defs>
</svg>
