<svg width="53" height="53" viewBox="0 0 53 53" fill="none" xmlns="http://www.w3.org/2000/svg">
<path d="M52.8167 4.59408C52.1036 2.0984 50.5145 0.631559 47.9679 0.0916779C47.8864 0.071305 47.8253 0.0407457 47.7846 0H5.2868C5.134 0.0407457 4.99139 0.0814914 4.83859 0.122237C4.533 0.203729 4.22741 0.28522 3.932 0.407457C1.81322 1.26312 0.519547 2.83183 0.101903 5.05247C0.0407847 5.37843 0.0102254 5.74515 0.0102254 6.1526V20.0367C0.0102254 28.9702 0.0102254 37.9037 3.89992e-05 46.827C-0.0101474 49.6996 1.97621 52.2258 4.72654 52.837C5.01176 52.8981 5.30717 52.9287 5.60258 52.9593L5.93873 53H46.7456C48.192 53 49.4144 52.6231 50.484 51.8489C51.7777 50.9016 52.5926 49.6181 52.9084 48.0188C52.9287 47.9373 52.9593 47.8559 53 47.7845V5.27657L52.8167 4.59408ZM6.21376 2.91332C19.7413 2.93369 33.2689 2.93369 46.7965 2.92351C48.3041 2.91332 49.7302 3.88103 50.0256 5.53123C50.0562 5.68403 50.0765 5.83682 50.0765 5.98962V12.0913C50.0765 12.0913 50.0663 12.1932 50.0562 12.295H2.9541C2.94392 12.1524 2.93373 12.02 2.93373 11.8876C2.93373 9.99289 2.9541 8.09821 2.92354 6.20354C2.89299 4.33942 4.35983 2.91332 6.21376 2.91332ZM49.6487 48.8847C49.0273 49.7403 48.1615 50.2089 47.0613 50.27C47.0002 50.2802 46.9289 50.2802 46.8678 50.2802H6.37674C5.49052 50.2802 4.83859 50.1172 4.27834 49.7505C3.31063 49.119 2.79112 48.2022 2.73 47.0206C2.71982 46.9085 2.73 46.7863 2.73 46.6742V15.5241C2.73 15.4223 2.79112 15.3408 2.8828 15.3204C3.19858 15.2491 23.0825 15.2287 32.6577 15.2287C36.6101 15.2287 49.557 15.2287 50.0969 15.2796C50.209 15.2898 50.2803 15.3815 50.2803 15.4834V23.0926C50.2803 30.9464 50.2803 38.8001 50.2904 46.6437C50.2904 47.5706 50.0867 48.2837 49.6487 48.8847Z" fill="#1C1D1F"/>
<path d="M52.8167 4.59408C52.1036 2.0984 50.5145 0.631559 47.9679 0.0916779C47.8864 0.071305 47.8253 0.0407457 47.7846 0H5.2868C5.134 0.0407457 4.99139 0.0814914 4.83859 0.122237C4.533 0.203729 4.22741 0.28522 3.932 0.407457C1.81322 1.26312 0.519547 2.83183 0.101903 5.05247C0.0407847 5.37843 0.0102254 5.74515 0.0102254 6.1526V20.0367C0.0102254 28.9702 0.0102254 37.9037 3.89992e-05 46.827C-0.0101474 49.6996 1.97621 52.2258 4.72654 52.837C5.01176 52.8981 5.30717 52.9287 5.60258 52.9593L5.93873 53H46.7456C48.192 53 49.4144 52.6231 50.484 51.8489C51.7777 50.9016 52.5926 49.6181 52.9084 48.0188C52.9287 47.9373 52.9593 47.8559 53 47.7845V5.27657L52.8167 4.59408ZM3.68753 3.74861C4.34964 3.0763 5.24605 2.70959 6.21376 2.70959C12.8757 2.71978 19.5274 2.72996 26.1792 2.72996C32.8309 2.72996 39.9207 2.71978 46.7965 2.71978C48.518 2.71978 49.9339 3.86066 50.2293 5.49049C50.2599 5.65347 50.2803 5.82664 50.2803 5.98962V12.0913C50.2803 12.0913 50.2803 12.1728 50.2599 12.3256C50.2395 12.4274 50.158 12.4987 50.0562 12.4987H2.9541C2.85224 12.4987 2.76056 12.4173 2.76056 12.3154L2.74019 12.1728C2.74019 12.0709 2.73 11.9792 2.73 11.8876V10.1151C2.74019 8.81126 2.74019 7.5074 2.71982 6.20354C2.71982 5.26638 3.04578 4.40054 3.68753 3.74861ZM49.6487 48.8847C49.0273 49.7403 48.1615 50.2089 47.0613 50.27C47.0002 50.2802 46.9289 50.2802 46.8678 50.2802H6.37674C5.49052 50.2802 4.83859 50.1172 4.27834 49.7505C3.31063 49.119 2.79112 48.2022 2.73 47.0206C2.71982 46.9085 2.73 46.7863 2.73 46.6742V15.5241C2.73 15.4223 2.79112 15.3408 2.8828 15.3204C3.19858 15.2491 23.0825 15.2287 32.6577 15.2287C36.6101 15.2287 49.557 15.2287 50.0969 15.2796C50.209 15.2898 50.2803 15.3815 50.2803 15.4834V23.0926C50.2803 30.9464 50.2803 38.8001 50.2904 46.6437C50.2904 47.5706 50.0867 48.2837 49.6487 48.8847Z" fill="#1C1D1F"/>
<path d="M39.0849 38.342L41.3973 31.1096C41.6825 30.2234 41.764 29.4798 41.6621 28.7871C41.3463 26.6378 40.1953 25.2219 38.158 24.4783C37.4959 24.244 36.8134 24.2032 36.1716 24.2032H17.561C17.4286 24.2134 16.9397 24.193 16.9397 24.193C16.848 24.193 16.7767 24.1319 16.7563 24.0402L16.4405 22.7975C16.2164 21.8705 15.9821 20.9639 15.7988 20.0472C15.6358 19.2526 15.0348 18.7637 14.1893 18.7637C13.4151 18.784 12.641 18.784 11.8668 18.784H8.70902C8.70902 18.784 8.46454 18.784 8.41361 18.784C7.85336 18.8248 7.35422 19.2221 7.20142 19.7314C7.03844 20.2916 7.23198 20.8824 7.70056 21.2288C7.94503 21.4121 8.25063 21.5038 8.6479 21.5038C9.26927 21.5038 9.88046 21.4936 10.4916 21.4936H12.7225C12.8243 21.5038 12.9364 21.514 13.0484 21.514H13.191C13.2725 21.5344 13.3744 21.6872 13.3948 21.7687L13.4559 21.9622L15.1367 28.9705C15.9312 32.2811 16.7359 35.5917 17.5407 38.9022C17.6323 39.2791 17.5814 39.5644 17.3879 39.8801C16.6748 40.9803 16.5016 42.1925 16.8582 43.4658C17.4082 45.391 19.1705 46.7458 21.1568 46.7458C21.5134 46.7458 21.8699 46.705 22.2162 46.6134C24.8138 45.9818 25.9954 43.4861 25.5981 41.5303L25.4555 40.7562C25.4351 40.6951 25.4555 40.6339 25.4963 40.583C25.537 40.5423 25.5879 40.5117 25.649 40.5117H31.4349C31.4961 40.5117 31.5572 40.5423 31.5979 40.5932C31.6387 40.6441 31.6489 40.7154 31.6285 40.7765C31.272 41.9684 31.3229 43.0481 31.7813 44.0668C32.2702 45.1465 33.0648 45.9207 34.1445 46.3791C34.7048 46.6236 35.2956 46.7458 35.8966 46.7458C37.3125 46.7458 38.6164 46.0735 39.4822 44.9224C40.511 43.5473 41.0102 41.1636 39.0035 38.9837C38.9525 38.9328 38.9627 38.7698 38.9831 38.6985L39.0849 38.342ZM21.167 44.0158C20.1993 44.0158 19.415 43.2213 19.415 42.2638C19.415 41.785 19.5983 41.347 19.9345 41.0108C20.2706 40.6747 20.7086 40.4811 21.1772 40.4811H21.218C22.1653 40.5015 22.9598 41.3266 22.9496 42.274C22.9293 43.2213 22.1245 44.0158 21.167 44.0158ZM35.8864 44.0158C35.4178 44.0158 34.9696 43.8325 34.6335 43.4861C34.2973 43.1398 34.114 42.6916 34.1242 42.2128C34.1445 41.2553 34.9391 40.4811 35.8864 40.4811H35.9068C36.8643 40.5015 37.6589 41.3164 37.6589 42.2638C37.6487 43.2111 36.8439 44.0158 35.8864 44.0158ZM38.8303 30.1725L36.4874 37.5474C36.467 37.6188 36.4059 37.6697 36.3346 37.6799C36.0494 37.7512 29.4893 37.7716 26.3621 37.7716C25.0379 37.7716 20.6577 37.7716 20.1789 37.7206C20.0974 37.7104 20.0261 37.6493 20.0058 37.5678L17.4999 27.2082C17.4897 27.1471 17.4999 27.086 17.5407 27.0351C17.5712 26.9943 17.6323 26.9637 17.6934 26.9536H17.8972C18.0194 26.9332 18.1213 26.9332 18.2333 26.9332H36.3142C37.1699 26.9332 37.8218 27.1777 38.3006 27.6972C38.9525 28.4 39.1257 29.2353 38.8303 30.1725Z" fill="#1C1D1F"/>
<path d="M39.0849 38.342L41.3973 31.1096C41.6825 30.2234 41.764 29.4798 41.6621 28.7871C41.3463 26.6378 40.1953 25.2219 38.158 24.4783C37.4959 24.244 36.8134 24.2032 36.1716 24.2032H17.561C17.4286 24.2134 16.9397 24.193 16.9397 24.193C16.848 24.193 16.7767 24.1319 16.7563 24.0402L16.4405 22.7975C16.2164 21.8705 15.9821 20.9639 15.7988 20.0472C15.6358 19.2526 15.0348 18.7637 14.1893 18.7637C13.4151 18.784 12.641 18.784 11.8668 18.784H8.70902C8.70902 18.784 8.46454 18.784 8.41361 18.784C7.85336 18.8248 7.35422 19.2221 7.20142 19.7314C7.03844 20.2916 7.23198 20.8824 7.70056 21.2288C7.94503 21.4121 8.25063 21.5038 8.6479 21.5038C9.26927 21.5038 9.88046 21.4936 10.4916 21.4936H12.7225C12.8243 21.5038 12.9364 21.514 13.0484 21.514H13.191C13.2725 21.5344 13.3744 21.6872 13.3948 21.7687L13.4559 21.9622L15.1367 28.9705C15.9312 32.2811 16.7359 35.5917 17.5407 38.9022C17.6323 39.2791 17.5814 39.5644 17.3879 39.8801C16.6748 40.9803 16.5016 42.1925 16.8582 43.4658C17.4082 45.391 19.1705 46.7458 21.1568 46.7458C21.5134 46.7458 21.8699 46.705 22.2162 46.6134C24.8138 45.9818 25.9954 43.4861 25.5981 41.5303L25.4555 40.7562C25.4351 40.6951 25.4555 40.6339 25.4963 40.583C25.537 40.5423 25.5879 40.5117 25.649 40.5117H31.4349C31.4961 40.5117 31.5572 40.5423 31.5979 40.5932C31.6387 40.6441 31.6489 40.7154 31.6285 40.7765C31.272 41.9684 31.3229 43.0481 31.7813 44.0668C32.2702 45.1465 33.0648 45.9207 34.1445 46.3791C34.7048 46.6236 35.2956 46.7458 35.8966 46.7458C37.3125 46.7458 38.6164 46.0735 39.4822 44.9224C40.511 43.5473 41.0102 41.1636 39.0035 38.9837C38.9525 38.9328 38.9627 38.7698 38.9831 38.6985L39.0849 38.342ZM21.167 44.0158C20.1993 44.0158 19.415 43.2213 19.415 42.2638C19.415 41.785 19.5983 41.347 19.9345 41.0108C20.2706 40.6747 20.7086 40.4811 21.1772 40.4811H21.218C22.1653 40.5015 22.9598 41.3266 22.9496 42.274C22.9293 43.2213 22.1245 44.0158 21.167 44.0158ZM35.8864 44.0158C35.4178 44.0158 34.9696 43.8325 34.6335 43.4861C34.2973 43.1398 34.114 42.6916 34.1242 42.2128C34.1445 41.2553 34.9391 40.4811 35.8864 40.4811H35.9068C36.8643 40.5015 37.6589 41.3164 37.6589 42.2638C37.6487 43.2111 36.8439 44.0158 35.8864 44.0158ZM38.8303 30.1725L36.4874 37.5474C36.467 37.6188 36.4059 37.6697 36.3346 37.6799C36.0494 37.7512 29.4893 37.7716 26.3621 37.7716C25.0379 37.7716 20.6577 37.7716 20.1789 37.7206C20.0974 37.7104 20.0261 37.6493 20.0058 37.5678L17.4999 27.2082C17.4897 27.1471 17.4999 27.086 17.5407 27.0351C17.5712 26.9943 17.6323 26.9637 17.6934 26.9536H17.8972C18.0194 26.9332 18.1213 26.9332 18.2333 26.9332H36.3142C37.1699 26.9332 37.8218 27.1777 38.3006 27.6972C38.9525 28.4 39.1257 29.2353 38.8303 30.1725Z" fill="#24A9EF"/>
<path d="M46.735 7.79261C46.6535 8.42417 46.1238 8.92331 45.4922 8.97424C45.4311 8.98443 45.37 8.98443 45.3089 8.98443C45.3089 8.98443 25.5472 8.98443 20.4336 8.97424C20.2095 8.97424 19.9345 8.97424 19.6798 8.88256C19.0788 8.67883 18.6917 8.05746 18.7936 7.4259C18.8853 6.79434 19.4251 6.30539 20.0669 6.26465H45.1153C45.4311 6.26465 45.6756 6.29521 45.8691 6.36651C46.4497 6.57024 46.8165 7.18143 46.735 7.79261Z" fill="#1C1D1F"/>
<path d="M46.735 7.79261C46.6535 8.42417 46.1238 8.92331 45.4922 8.97424C45.4311 8.98443 45.37 8.98443 45.3089 8.98443C45.3089 8.98443 25.5472 8.98443 20.4336 8.97424C20.2095 8.97424 19.9345 8.97424 19.6798 8.88256C19.0788 8.67883 18.6917 8.05746 18.7936 7.4259C18.8853 6.79434 19.4251 6.30539 20.0669 6.26465H45.1153C45.4311 6.26465 45.6756 6.29521 45.8691 6.36651C46.4497 6.57024 46.8165 7.18143 46.735 7.79261Z" fill="#1C1D1F"/>
<path d="M8.98396 7.62963C8.97377 8.36305 8.3524 8.98443 7.61898 8.98443C7.26245 8.98443 6.91611 8.83163 6.65127 8.56678C6.39661 8.30193 6.254 7.94541 6.26418 7.58888C6.28456 6.86565 6.90593 6.26465 7.62916 6.26465C8.38296 6.27483 8.99415 6.90639 8.98396 7.62963Z" fill="#1C1D1F"/>
<path d="M8.98396 7.62963C8.97377 8.36305 8.3524 8.98443 7.61898 8.98443C7.26245 8.98443 6.91611 8.83163 6.65127 8.56678C6.39661 8.30193 6.254 7.94541 6.26418 7.58888C6.28456 6.86565 6.90593 6.26465 7.62916 6.26465C8.38296 6.27483 8.99415 6.90639 8.98396 7.62963Z" fill="#1C1D1F"/>
<path d="M15.2385 7.62963C15.2385 8.36305 14.6171 8.97424 13.8837 8.98443C13.517 8.98443 13.1808 8.83163 12.916 8.56678C12.6511 8.30193 12.5187 7.9556 12.5289 7.58888C12.5391 6.86565 13.1604 6.26465 13.8837 6.26465C14.6375 6.27483 15.2486 6.89621 15.2385 7.62963Z" fill="#1C1D1F"/>
<path d="M15.2385 7.62963C15.2385 8.36305 14.6171 8.97424 13.8837 8.98443C13.517 8.98443 13.1808 8.83163 12.916 8.56678C12.6511 8.30193 12.5187 7.9556 12.5289 7.58888C12.5391 6.86565 13.1604 6.26465 13.8837 6.26465C14.6375 6.27483 15.2486 6.89621 15.2385 7.62963Z" fill="#1C1D1F"/>
</svg>
