<svg width="53" height="53" viewBox="0 0 53 53" fill="none" xmlns="http://www.w3.org/2000/svg">
<g clip-path="url(#clip0_1644_866)">
<path d="M40.0596 19.3504V16.5704C41.2296 16.5704 42.3696 16.5504 43.5096 16.5704C44.6496 16.6004 45.8096 16.5304 46.9196 16.7504C50.1896 17.3904 52.3996 20.1204 52.4196 23.5504C52.4596 30.8504 52.4696 38.1604 52.4196 45.4604C52.3896 49.4604 49.4496 52.4004 45.4496 52.4204C38.1496 52.4704 30.8496 52.4704 23.5396 52.4204C19.7096 52.3904 16.8596 49.6904 16.6196 45.8904C16.4996 43.9804 16.5996 42.0604 16.5996 40.0904H19.3496C19.3496 40.8704 19.3496 41.6404 19.3496 42.4104C19.3496 43.4004 19.3496 44.3904 19.3496 45.3804C19.3796 47.9104 21.0796 49.6404 23.6096 49.6504C27.7696 49.6704 31.9196 49.6504 36.0796 49.6504C39.1196 49.6504 42.1496 49.6504 45.1896 49.6504C47.9696 49.6504 49.6496 47.9704 49.6496 45.1804C49.6496 38.0704 49.6496 30.9604 49.6496 23.8504C49.6496 21.0104 47.9896 19.3504 45.1696 19.3404C43.4896 19.3404 41.8196 19.3404 40.0696 19.3404L40.0596 19.3504Z" fill="#1C1D1F"/>
<path d="M34.5398 52.26C30.8698 52.26 27.1998 52.25 23.5298 52.22C19.8098 52.2 17.0498 49.59 16.8098 45.87C16.7298 44.57 16.7498 43.29 16.7698 41.93C16.7698 41.38 16.7898 40.83 16.7898 40.28H19.1398V43.32C19.1398 44.01 19.1398 44.69 19.1398 45.38C19.1698 48.04 20.9598 49.84 23.5998 49.85C25.3198 49.85 27.0498 49.85 28.7698 49.85H45.1798C48.0498 49.85 49.8398 48.05 49.8398 45.17C49.8398 38.06 49.8398 30.95 49.8398 23.84C49.8398 20.9 48.0898 19.13 45.1598 19.13H40.2498V16.75H42.1498C42.5998 16.75 43.0398 16.75 43.4898 16.75C43.7698 16.75 44.0598 16.75 44.3398 16.75C45.1798 16.75 46.0498 16.75 46.8698 16.92C50.0398 17.54 52.1898 20.2 52.2098 23.53C52.2498 31.68 52.2498 38.85 52.2098 45.44C52.1798 49.33 49.3298 52.18 45.4298 52.21C41.7998 52.23 38.1698 52.25 34.5298 52.25L34.5398 52.26Z" fill="#1C1D1F"/>
<path d="M35.8602 12.4004H33.1102C33.1102 12.1504 33.1102 11.9204 33.1102 11.6904C33.1102 10.1404 33.1202 8.59043 33.1102 7.04043C33.0802 4.54043 31.3702 2.81043 28.8802 2.81043C21.6002 2.80043 14.3202 2.79043 7.0402 2.81043C4.5502 2.81043 2.8202 4.55043 2.8202 7.05043C2.8102 14.3104 2.8102 21.5704 2.8202 28.8304C2.8202 31.3704 4.5402 33.0804 7.0802 33.1104C8.6102 33.1304 10.1402 33.1104 11.6702 33.1104C11.9002 33.1104 12.1302 33.1104 12.4102 33.1104V35.8304C12.2802 35.8504 12.1602 35.8904 12.0302 35.8904C10.3702 35.8904 8.7102 35.9204 7.0502 35.8904C3.0502 35.8204 0.0801953 32.9304 0.0501953 28.9404C0.000195313 21.6104 0.000195313 14.2904 0.0501953 6.96043C0.0701953 3.00043 3.0202 0.0604297 6.9902 0.0404297C14.2902 -0.00957031 21.5902 -0.00957031 28.9002 0.0404297C32.7602 0.0604297 35.6102 2.76043 35.8502 6.61043C35.9702 8.51043 35.8702 10.4304 35.8702 12.4104L35.8602 12.4004Z" fill="#1C1D1F"/>
<path d="M8.91965 35.7002C8.28965 35.7002 7.66965 35.7002 7.03965 35.6802C3.12965 35.6102 0.269648 32.7702 0.239648 28.9302C0.189648 21.4102 0.189648 14.0202 0.239648 6.9602C0.269648 3.0902 3.10965 0.260195 6.98965 0.240195C10.5796 0.210195 14.1796 0.200195 17.7696 0.200195C21.3596 0.200195 25.1796 0.210195 28.8896 0.230195C32.6297 0.250195 35.4096 2.8802 35.6396 6.6202C35.7197 7.9202 35.6996 9.2002 35.6796 10.5602C35.6796 11.1102 35.6596 11.6502 35.6596 12.2102H33.3097V10.1802C33.3097 9.1302 33.3097 8.0902 33.3097 7.0402C33.2797 4.4402 31.4597 2.6102 28.8696 2.6102C25.2896 2.6102 21.7097 2.6002 18.1196 2.6002C14.5296 2.6002 10.7196 2.6002 7.01965 2.6102C4.41965 2.6102 2.59965 4.4402 2.59965 7.0502C2.58965 14.3102 2.58965 21.5702 2.59965 28.8302C2.59965 31.4802 4.38965 33.2802 7.05965 33.3102C7.63965 33.3102 8.22965 33.3102 8.80965 33.3102H12.1896V35.6602C12.1296 35.6702 12.0696 35.6802 12.0096 35.6802H8.91965V35.7002Z" fill="#1C1D1F"/>
<path d="M26.1901 35.8896C24.4701 35.8896 22.7401 35.8896 21.0201 35.8896C18.3101 35.8796 16.5701 34.1396 16.5601 31.4396C16.5601 27.9496 16.5501 24.4596 16.5601 20.9696C16.5601 18.3096 18.3201 16.5696 20.9901 16.5596C24.4801 16.5596 27.9701 16.5596 31.4601 16.5596C34.1301 16.5596 35.8801 18.3096 35.8801 20.9696C35.8901 24.4596 35.8801 27.9496 35.8801 31.4396C35.8801 34.1396 34.1301 35.8696 31.4201 35.8796C29.6801 35.8796 27.9301 35.8796 26.1901 35.8796V35.8896ZM33.1101 26.2296C33.1101 24.4896 33.1101 22.7396 33.1101 20.9996C33.1101 19.8196 32.6401 19.3496 31.4701 19.3496C27.9801 19.3496 24.4901 19.3496 21.0001 19.3496C19.8201 19.3496 19.3501 19.8196 19.3501 20.9896C19.3501 24.4796 19.3501 27.9696 19.3501 31.4596C19.3501 32.6396 19.8201 33.1096 20.9901 33.1096C24.4801 33.1096 27.9701 33.1096 31.4601 33.1096C32.6401 33.1096 33.1101 32.6396 33.1101 31.4696C33.1101 29.7296 33.1101 27.9796 33.1101 26.2396V26.2296Z" fill="#24A9EF"/>
<path d="M21.0295 35.6898C18.4495 35.6898 16.7795 34.0098 16.7695 31.4398C16.7695 27.9498 16.7695 24.4598 16.7695 20.9698C16.7695 18.4198 18.4395 16.7698 20.9995 16.7598C22.7395 16.7598 24.4895 16.7598 26.2295 16.7598C27.9695 16.7598 29.7195 16.7598 31.4595 16.7598C34.0195 16.7598 35.6795 18.4198 35.6895 20.9698C35.6995 24.4598 35.6895 27.9498 35.6895 31.4398C35.6895 34.0098 34.0095 35.6698 31.4295 35.6798H29.4995H21.0295V35.6898ZM20.9995 19.1498C19.6995 19.1498 19.1495 19.6998 19.1495 20.9898C19.1495 24.4798 19.1495 27.9698 19.1495 31.4598C19.1495 32.7598 19.6995 33.3098 20.9895 33.3098H25.9895H31.4595C32.7495 33.3098 33.3095 32.7598 33.3095 31.4698C33.3095 30.2498 33.3095 29.0298 33.3095 27.7998V24.5898C33.3095 23.3898 33.3095 22.1898 33.3095 20.9898C33.3095 19.6898 32.7495 19.1398 31.4695 19.1398H25.9995H21.0095L20.9995 19.1498Z" fill="#24A9EF"/>
<path d="M33.1096 26.2396C33.1096 27.9796 33.1096 29.7296 33.1096 31.4696C33.1096 32.6396 32.6296 33.1096 31.4596 33.1096C27.9696 33.1096 24.4796 33.1096 20.9896 33.1096C19.8196 33.1096 19.3496 32.6396 19.3496 31.4596C19.3496 27.9696 19.3496 24.4796 19.3496 20.9896C19.3496 19.8196 19.8196 19.3496 20.9996 19.3496C24.4896 19.3496 27.9796 19.3496 31.4696 19.3496C32.6396 19.3496 33.1096 19.8196 33.1096 20.9996C33.1096 22.7396 33.1096 24.4896 33.1096 26.2296V26.2396Z" fill="#24A9EF"/>
<path d="M20.9898 32.9098C19.9298 32.9098 19.5498 32.5298 19.5498 31.4598C19.5498 27.9698 19.5498 24.4798 19.5498 20.9898C19.5498 19.9298 19.9298 19.5498 20.9998 19.5498H25.9898H31.4598C32.5198 19.5498 32.8998 19.9298 32.8998 20.9998C32.8998 22.1998 32.8998 23.3998 32.8998 24.5998V27.8098C32.8998 29.0298 32.8998 30.2498 32.8998 31.4698C32.8998 32.5298 32.5198 32.9098 31.4498 32.9098H25.9798H20.9798H20.9898Z" fill="#24A9EF"/>
</g>
<defs>
<clipPath id="clip0_1644_866">
<rect width="52.45" height="52.46" fill="white"/>
</clipPath>
</defs>
</svg>
