<svg width="53" height="53" viewBox="0 0 53 53" fill="none" xmlns="http://www.w3.org/2000/svg">
<g clip-path="url(#clip0_1644_859)">
<path d="M30.0301 52.46C29.2501 52.46 28.6501 51.84 28.6401 51.03C28.6301 49.84 28.6301 48.66 28.6401 47.47V44.83H23.8201C23.8201 44.83 23.8201 48.44 23.8201 48.95C23.8201 49.9 23.2501 50.53 22.4201 50.54C21.5901 50.54 21.0101 49.9 21.0001 48.97C21.0001 48.13 21.0001 47.3 21.0001 46.44V44.85H16.1801V47.6C16.1801 48.71 16.1801 49.82 16.1801 50.94C16.1801 51.81 15.5801 52.45 14.7701 52.45C13.9501 52.45 13.3701 51.8 13.3601 50.92C13.3601 49.61 13.3601 48.29 13.3601 46.95V44.81H11.0501C9.05012 44.79 7.65012 43.38 7.63012 41.38C7.63012 40.99 7.63012 39.09 7.63012 39.09H3.62012C3.40012 39.09 3.18012 39.09 3.00012 39.05C2.31012 38.89 1.84012 38.25 1.91012 37.55C1.98012 36.84 2.56012 36.3 3.26012 36.28C3.75012 36.27 4.25012 36.27 4.74012 36.27H7.59012V31.46H1.86012C1.72012 31.46 1.58012 31.46 1.44012 31.46C0.610119 31.43 -0.00988074 30.82 0.000119258 30.03C0.0101193 29.25 0.630119 28.65 1.43012 28.65C2.17012 28.65 2.90012 28.65 3.64012 28.65H7.60012V23.83H3.79012H3.38012C2.53012 23.81 1.91012 23.22 1.91012 22.43C1.91012 21.64 2.53012 21.03 3.36012 21.02C3.86012 21.02 4.35012 21.02 4.85012 21.02H7.59012V16.2H1.62012C1.11012 16.2 0.660119 16.03 0.370119 15.74C0.130119 15.47 0.000119258 15.14 0.000119258 14.76C0.000119258 13.93 0.650119 13.37 1.59012 13.36H7.63012V12.26C7.63012 11.84 7.63012 11.44 7.63012 11.04C7.65012 9.09 9.07012 7.65 11.0101 7.63H13.3501V5.94C13.3501 5.07 13.3501 4.21 13.3501 3.36C13.3601 2.54 13.9701 1.9 14.7301 1.9C14.9101 1.9 15.0901 1.94 15.2701 2.01C15.8701 2.26 16.1601 2.71 16.1601 3.38C16.1601 4.23 16.1601 7.6 16.1601 7.6H20.9801V2.21C20.9801 1.95 20.9801 1.69 20.9801 1.44C21.0001 0.62 21.6101 0 22.3901 0C23.1901 0.01 23.7801 0.63 23.7901 1.43C23.8001 2.64 23.7901 3.84 23.7901 5.05V7.6H28.6101V4.47C28.6101 4.1 28.6101 3.74 28.6101 3.37C28.6301 2.52 29.2201 1.9 30.0101 1.9C30.8101 1.9 31.4101 2.52 31.4201 3.35C31.4201 4.2 31.4201 5.05 31.4201 5.91V7.58H36.2401V3.71C36.2401 3 36.2401 2.28 36.2401 1.57C36.2401 0.65 36.8201 0.01 37.6501 0.01C38.4901 0.01 39.0501 0.65 39.0601 1.6C39.0601 2.86 39.0601 7.65 39.0601 7.65H41.3701C43.3601 7.67 44.7701 9.09 44.7901 11.09C44.7901 11.47 44.7901 13.38 44.7901 13.38H48.7401C48.8601 13.38 48.9801 13.38 49.1001 13.38C49.9101 13.41 50.5101 14.02 50.5101 14.79C50.5101 15.56 49.8901 16.18 49.1001 16.19C48.6201 16.19 48.1401 16.19 47.6501 16.19H44.8201V21H49.9001C50.2401 21 50.5801 21 50.9201 21C51.8001 21.01 52.4301 21.61 52.4201 22.43C52.4101 23.23 51.7801 23.81 50.9301 23.82C50.2501 23.82 49.5701 23.82 48.8901 23.82H44.8101V28.64H48.1401C48.4501 28.64 48.7701 28.64 49.0801 28.64C49.8901 28.66 50.5001 29.26 50.5001 30.04C50.5001 30.84 49.8801 31.44 49.0501 31.45C48.5801 31.45 48.1101 31.45 47.6301 31.45H44.8101V36.26H48.9201C49.5801 36.26 50.2301 36.26 50.8901 36.26C51.7701 36.26 52.4001 36.86 52.4001 37.67C52.4001 38.48 51.7501 39.07 50.8701 39.07H44.7601V41.32C44.7501 43.39 43.3401 44.79 41.2701 44.8H39.0301V46.41C39.0301 47.29 39.0301 48.15 39.0301 49.01C39.0301 49.63 38.8001 50.06 38.2901 50.34C38.0801 50.46 37.8501 50.52 37.6101 50.52C36.9401 50.52 36.2401 49.99 36.2201 49.11C36.2001 48.26 36.2001 47.4 36.2101 46.52V44.79H31.3901V48.71C31.3901 49.47 31.3901 50.23 31.3901 50.99C31.3801 51.81 30.7701 52.43 29.9901 52.43H29.9701L30.0301 52.46ZM10.5001 41.97H41.9801V10.5H10.5001V41.98V41.97Z" fill="#1C1D1F"/>
<path d="M17.9604 37.0696C16.3504 37.0696 15.4004 36.1096 15.4004 34.5196C15.4004 28.9896 15.4004 23.4696 15.4004 17.9396C15.4004 16.3696 16.3804 15.3896 17.9704 15.3896H34.5504C36.1104 15.3896 37.0804 16.3596 37.0804 17.9096C37.0804 19.8696 37.0804 21.8396 37.0804 23.7996V34.4196C37.0804 36.0996 36.1304 37.0597 34.4804 37.0597H25.8504H17.9704L17.9604 37.0696ZM18.2604 34.2197H34.2304L34.5504 34.4196H18.5804L18.2604 34.2197Z" fill="#24A9EF"/>
</g>
<defs>
<clipPath id="clip0_1644_859">
<rect width="52.46" height="52.46" fill="white"/>
</clipPath>
</defs>
</svg>
