<svg width="34" height="15" viewBox="0 0 34 15" fill="none" xmlns="http://www.w3.org/2000/svg">
<path d="M25.3947 9.04203C24.5921 8.23977 23.2926 8.23977 22.4903 9.04203C21.6879 8.23977 20.3881 8.23977 19.586 9.04203C18.785 9.84464 18.7841 11.1442 19.586 11.9468L22.4915 14.8506L25.3947 11.9468C25.8433 11.4979 26.0411 10.8925 25.9878 10.3064C25.9455 9.84464 25.7477 9.39571 25.3947 9.04203Z" fill="white"/>
<path d="M33.2171 13.425C33.0678 13.5866 32.9352 13.7028 32.8204 13.7702C32.705 13.8388 32.5653 13.8798 32.4024 13.8924C32.1437 13.8924 31.9438 13.7844 31.8005 13.5667C31.6584 13.35 31.5329 12.9691 31.4237 12.4255L30.9557 10.3278C30.7789 9.48525 30.3924 8.85396 29.7941 8.43286C29.196 8.01142 28.2869 7.74746 27.0637 7.63787C28.6938 7.44789 29.8622 6.98583 30.5685 6.25254C31.2745 5.51891 31.6282 4.66981 31.6282 3.70523C31.6282 2.56468 31.1559 1.68844 30.2119 1.07668C29.2674 0.466298 27.858 0.160158 25.9837 0.160158C25.6302 0.160158 25.3182 0.167418 25.0464 0.180902L22.7847 0.201127C21.5351 0.201127 18.0157 0.18384 16.8742 0.149441C16.786 0.145638 16.7008 0.143736 16.6109 0.139933V0.547198C17.1953 0.574338 17.6328 0.720753 17.9253 0.985925C18.2163 1.25023 18.3632 1.67599 18.3632 2.25941C18.3632 2.84282 18.2076 3.60376 17.8949 4.62244L15.9594 10.7753L13.1674 2.25923C13.0318 1.86493 12.9638 1.54514 12.9638 1.30105C12.9638 1.016 13.0731 0.822223 13.2898 0.72058C13.5073 0.618245 13.8603 0.560855 14.3497 0.547026V0.13976C13.7244 0.180729 12.7457 0.201127 11.415 0.201127C10.2336 0.201127 9.26196 0.180902 8.5017 0.13976V0.547026C8.74596 0.574165 8.95996 0.666128 9.1432 0.822051C9.32678 0.978319 9.48633 1.25386 9.62203 1.64764L10.6611 4.80568L8.603 10.877L5.62855 2.25906C5.50651 1.86476 5.44497 1.55914 5.44497 1.3415C5.44497 0.879787 5.68231 0.615479 6.15803 0.546853V0.139587C5.62855 0.180556 4.79362 0.200954 3.6522 0.200954C2.44285 0.200954 1.43126 0.180729 0.616211 0.139587V0.546853C0.847847 0.560682 1.07845 0.669413 1.30905 0.872181C1.53965 1.07633 1.73705 1.40235 1.89989 1.8511L6.46382 14.6049C6.613 14.5923 6.85104 14.5854 7.17688 14.5854C7.50273 14.5854 7.74059 14.5923 7.89046 14.6049L10.9061 5.51874L13.9014 14.6049C14.0504 14.5923 14.2878 14.5854 14.6147 14.5854C14.9415 14.5854 15.1775 14.5923 15.3277 14.6049L18.9136 2.97212C19.1307 2.26563 19.399 1.71938 19.7183 1.33165C19.8638 1.15464 20.012 1.00529 20.1622 0.880651C20.3203 0.762413 20.4725 0.703639 20.5814 0.698281C20.6182 0.696552 20.6498 0.700701 20.6754 0.7109C20.886 0.792145 21.0284 0.948068 21.1039 1.17953C21.1788 1.41013 21.2154 1.78369 21.2154 2.29986V7.71946H25.7804C26.3635 7.71946 26.7821 7.95403 27.0331 8.42215C27.2836 8.89078 27.4985 9.6213 27.6745 10.6128L28.0413 12.6492C28.1777 13.4514 28.4722 14.0188 28.9286 14.351C29.3832 14.6839 30.004 14.8506 30.7924 14.8506C31.3898 14.8506 31.8992 14.759 32.3205 14.575C32.7406 14.3911 33.1352 14.09 33.5017 13.6689L33.2171 13.425ZM25.332 7.31185H24.4558V2.29986C24.4558 1.81031 24.4898 1.44401 24.5569 1.19906C24.6257 0.954291 24.7443 0.785231 24.9142 0.68981C25.0838 0.59439 25.352 0.546853 25.7185 0.546853C26.6153 0.546853 27.261 0.832249 27.6553 1.40235C28.0487 1.97366 28.2461 2.81533 28.2461 3.92944C28.2461 5.04354 28.0382 5.83473 27.6243 6.42541C27.21 7.0166 26.4459 7.31185 25.332 7.31185Z" fill="white"/>
</svg>
